<svg width="92" height="93" viewBox="0 0 92 93" fill="none" xmlns="http://www.w3.org/2000/svg">
<circle cx="46" cy="45" r="40" fill="#313BAC"/>
<circle cx="46" cy="45" r="38.7" stroke="white" stroke-width="0.6" stroke-dasharray="1.2 1.2"/>
<path d="M29.1391 78.2C24.6724 78.2 21.0724 76.0333 18.3391 71.7C15.6724 67.3 14.1057 61.3667 13.6391 53.9C13.5724 52.8333 13.5391 51.2667 13.5391 49.2C13.5391 41.1333 14.8724 34 17.5391 27.8C20.2057 21.5333 23.9724 16.7 28.8391 13.3C33.7724 9.83333 39.5057 8.09999 46.0391 8.09999C52.5724 8.09999 58.2724 9.83333 63.1391 13.3C68.0724 16.7 71.8391 21.5 74.4391 27.7C77.1057 33.9 78.4391 41.0667 78.4391 49.2C78.4391 51.2667 78.4057 52.8333 78.3391 53.9C77.8724 61.5 76.3057 67.4333 73.6391 71.7C70.9724 75.9667 67.3724 78.1 62.8391 78.1C59.1724 78.1 56.6057 77.1 55.1391 75.1C53.7391 73.1 53.0391 70.6667 53.0391 67.8C53.0391 66.4667 53.1391 65.3 53.3391 64.3C49.8724 64.4333 46.8057 64.5 44.1391 64.5C42.4724 64.5 40.6391 64.4333 38.6391 64.3C38.8391 65.3 38.9391 66.4667 38.9391 67.8C38.9391 70.7333 38.2057 73.2 36.7391 75.2C35.3391 77.2 32.8057 78.2 29.1391 78.2ZM37.9391 46.5C41.5391 46.3667 44.1724 46.3 45.8391 46.3C47.6391 46.3 50.2724 46.3667 53.7391 46.5C53.8724 45.7667 53.9391 44.6667 53.9391 43.2C53.9391 40.0667 53.2724 37.5333 51.9391 35.6C50.6057 33.6 48.5391 32.6 45.7391 32.6C43.0057 32.6 40.9724 33.5667 39.6391 35.5C38.3057 37.4333 37.6391 39.9333 37.6391 43C37.6391 44.1333 37.7391 45.3 37.9391 46.5Z" fill="white"/>
</svg>
