<svg width="24" height="31" viewBox="0 0 24 31" fill="none" xmlns="http://www.w3.org/2000/svg">
<path d="M21.2481 17.2102C21.5436 16.6714 21.5013 15.8363 21.1004 15.4322C20.92 15.2673 20.7091 15.1652 20.4884 15.1359C20.2592 15.0936 20.0254 15.115 19.8033 15.1987C19.5811 15.2823 19.3757 15.4263 19.2012 15.6207C19.0296 15.8205 18.9081 16.0804 18.8518 16.368C18.7955 16.6555 18.8069 16.9579 18.8847 17.2372C19.2576 18.4225 20.7627 18.0906 21.2481 17.2102V17.2102Z" fill="#FFD340"/>
<path d="M8.24304 30.5C6.66048 30.0242 5.1132 29.5391 3.50952 29.171C5.98536 27.6175 8.44704 26.0457 10.9158 24.4658C11.2464 24.7352 11.591 24.8609 11.9639 25.0315C13.3213 24.385 14.5452 23.6667 15.8534 22.8765C16.5427 23.7474 17.0774 24.6536 17.7734 25.5253C18.2166 25.238 18.5682 24.9866 19.0114 24.7083C20.1227 25.8573 21.248 27.1687 22.3031 28.3989C21.1777 28.8837 20.0734 29.4135 18.948 29.8984C18.0433 29.4459 17.112 29.0856 16.1628 28.8208C13.469 29.5655 11.2464 29.9791 8.24304 30.5Z" fill="#14D29B"/>
<path d="M13.3565 25.9385C12.9204 26.145 12.1397 27.007 12.0694 27.007C11.5137 27.007 9.14341 27.0159 8.91829 26.962C8.48989 27.2404 6.74498 28.0126 6.3299 28.202C6.5549 28.2829 7.76474 28.5522 8.10938 28.7767C8.20778 28.8396 7.82798 29.495 7.82798 29.504C8.06006 29.468 11.0775 28.642 11.8301 28.4623C11.9215 28.4444 12.4209 28.8574 12.6461 28.9292C13.033 28.6509 15.2203 27.3398 15.5158 27.2142C15.5791 27.1872 16.3879 27.663 16.7748 27.7798C17.3727 27.4835 17.9283 27.0435 18.5191 26.7023C18.0619 26.4689 17.6191 26.2175 17.1757 25.9391L13.3565 25.9385Z" fill="#008C6E"/>
<path d="M12.3788 22.077C11.3519 21.8614 11.0917 21.7093 10.6345 21.1884C10.1773 20.6675 9.66384 20.0661 9.05196 20.1289C8.85504 20.1468 8.66508 20.2361 8.46816 20.2361C8.04612 20.2361 7.70148 19.841 7.37796 19.5089C6.67464 18.7815 5.81652 18.2159 4.91616 18.2697C4.0158 18.3234 3.1086 19.1856 3.04524 20.3349C3.00312 21.0712 2.18016 21.4305 1.65972 21.7628C1.13322 22.0815 0.578126 22.3167 0.00683594 22.463C0.815636 22.4542 9.00972 22.1398 12.3788 22.077V22.077Z" fill="#9778FF"/>
<path d="M10.1492 21.7092C9.78348 21.4937 9.46692 21.1884 9.10116 20.9639C8.88674 20.8266 8.65162 20.7501 8.41188 20.7395C8.17418 20.7377 7.93672 20.7587 7.70148 20.8023C7.50621 20.8426 7.30775 20.8517 7.11072 20.8293C6.95054 20.7999 6.79431 20.7425 6.64644 20.6586C6.38065 20.48 6.12869 20.2697 5.89392 20.0305C5.6525 19.7807 5.37184 19.6 5.07096 19.5007C4.68745 19.4131 4.29203 19.4989 3.95268 19.7432C3.62208 19.9767 3.1578 20.5602 2.96088 20.659C2.74284 21.1888 2.08872 21.4853 1.65288 21.7636C1.1264 22.0824 0.5713 22.3176 0 22.4639C0.71748 22.455 7.21644 22.2035 11.0426 22.0962C10.7337 22.0135 10.4338 21.8836 10.1492 21.7092V21.7092Z" fill="#643CFF"/>
<path d="M23.316 18.6739C22.7482 18.5275 22.2169 18.2068 21.768 17.7394C21.353 17.3257 20.8184 16.9312 20.34 17.1917C20.1431 17.2989 19.9671 17.5059 19.7491 17.4968C19.3622 17.47 19.2638 16.8145 19.088 16.3834C18.7574 15.5843 17.8993 15.3687 17.2311 15.665C16.563 15.9613 16.0565 16.6349 15.5642 17.2814C15.5571 16.8863 15.2477 16.5901 14.9382 16.572C14.6287 16.5539 14.3403 16.7517 14.0941 16.9761C13.644 17.3801 13.2501 17.8831 12.8 18.2961C12.3499 18.7091 12.0403 18.817 11.2667 18.9426C15.5861 18.9522 19.1521 18.9522 23.316 18.6739Z" fill="#9778FF"/>
<path d="M21.5435 17.8392C21.2838 17.6393 20.9798 17.554 20.6784 17.5966C20.3971 17.6415 20.1298 17.7943 19.8485 17.848C19.6609 17.9023 19.4649 17.8836 19.2858 17.7943C19.1096 17.6696 18.9655 17.4825 18.8708 17.2555C18.7452 16.958 18.589 16.6832 18.4066 16.4383C18.2149 16.1979 17.991 16.0032 17.7455 15.8636C17.5798 15.768 17.4046 15.7015 17.2249 15.666C16.5568 15.9625 16.0504 16.6359 15.558 17.2824C15.5509 16.8873 15.2414 16.591 14.932 16.573C14.6225 16.5549 14.3341 16.7527 14.088 16.9771C13.6379 17.3811 13.2439 17.884 12.7938 18.2971C12.3437 18.7101 12.0342 18.818 11.2604 18.9436C15.4174 18.9526 18.8778 18.9526 22.8448 18.7101C22.3876 18.5126 21.9796 18.1445 21.5435 17.8392V17.8392Z" fill="#643CFF"/>
<path d="M17.1687 3.52588L16.9225 6.05812H17.6751L17.9142 4.01964L17.1687 3.52588V3.52588Z" fill="black"/>
<path d="M19.4967 3.13086C18.8497 3.50788 18.083 3.13086 17.3867 3.31945C17.3165 3.32827 17.2514 3.36984 17.2038 3.43619C17.1123 3.58939 17.232 3.81321 17.3586 3.91203C17.4852 4.01084 17.6466 4.09158 17.6961 4.27971C17.7524 4.49526 17.6047 4.7197 17.436 4.78266C17.2627 4.8243 17.0841 4.81195 16.9154 4.74666C16.0994 4.52222 15.1922 4.44133 14.4818 5.0071C15.0234 5.07895 15.2625 5.71641 15.5649 6.29122C15.8673 6.86603 16.2121 7.50334 16.7396 7.64704C16.803 7.67445 16.8714 7.67622 16.9356 7.65212C16.9998 7.62802 17.0566 7.57922 17.0983 7.51238C17.1335 7.43149 17.2671 6.65936 17.2812 6.65936H17.2883C17.865 6.75802 18.4065 7.29682 18.9833 7.1712C19.3211 5.8677 19.4945 4.50388 19.4967 3.13086V3.13086Z" fill="#14D29B"/>
<path d="M17.2812 6.65061H17.2883C17.3234 6.65965 17.5555 6.7315 17.5836 6.74038C17.6469 6.2555 17.7173 5.66293 17.8016 5.18693C17.9142 4.53139 17.9564 3.92089 18.1041 3.27439C17.8621 3.25249 17.6189 3.26756 17.3797 3.31928C17.3096 3.32807 17.2444 3.36964 17.1968 3.43601C17.1054 3.58921 17.2249 3.81304 17.3515 3.91185C17.4781 4.01067 17.6395 4.0914 17.6892 4.27953C17.7054 4.34378 17.7054 4.41292 17.6892 4.47716C17.6469 4.69256 17.5484 5.03389 17.5063 5.24929C17.4429 5.56411 17.2739 6.64157 17.2812 6.65061V6.65061Z" fill="#008C6E"/>
<path d="M18.3503 11.1048C18.4031 11.1226 18.4574 11.1316 18.512 11.1318C18.5399 11.1303 18.5671 11.1207 18.5915 11.1035C18.616 11.0864 18.6369 11.0622 18.6528 11.033C18.688 10.9701 18.8146 11.042 18.8426 10.9701C18.8638 10.9073 18.7723 10.7906 18.8004 10.7816C18.8426 10.7636 18.8844 10.7367 18.9204 10.7187C18.9274 10.7097 18.9415 10.7097 18.9485 10.7007C18.9626 10.6827 18.9556 10.6558 18.9485 10.6379C18.9414 10.6199 18.9274 10.602 18.9204 10.5839C18.8993 10.5122 18.9626 10.3774 18.9626 10.3056C18.9556 10.2158 18.8641 10.2069 18.8008 10.162C18.7558 10.1239 18.7058 10.0965 18.6532 10.0811C18.6151 10.0738 18.5761 10.08 18.5406 10.099C18.3437 10.153 18.1537 10.2428 17.9568 10.2967C17.8286 10.319 17.7047 10.3709 17.591 10.4499C17.5599 10.481 17.5366 10.5232 17.524 10.5711C17.5115 10.619 17.5104 10.6706 17.5207 10.7194C17.6892 11.0144 18.0899 11.0323 18.3503 11.1048V11.1048Z" fill="#E28A42"/>
<path d="M16.4084 26.2548L19.5301 2.12256L19.773 2.17373L16.6513 26.3059L16.4084 26.2548Z" fill="black"/>
<path d="M18.0268 10.7088C18.1358 10.6364 18.2335 10.539 18.3148 10.4214C18.3822 10.3055 18.4752 10.2179 18.5819 10.17C18.6659 10.1341 18.8633 10.0532 18.8351 9.8916C18.6733 9.9276 18.4343 10.0174 18.2935 10.0263C18.1615 10.0248 18.0298 10.0098 17.8997 9.98138C17.768 9.95452 17.633 9.97959 17.5128 10.0532C17.3722 10.1605 17.323 10.2329 17.3651 10.4394C17.4149 10.6908 17.8087 10.8345 18.0268 10.7088Z" fill="#F2BF8C"/>
<path d="M14.4186 14.4807C13.8321 15.0465 13.1507 15.4307 12.428 15.603C11.5981 15.8006 10.7048 15.7018 9.98001 15.1451C9.63537 14.8846 9.34701 14.5255 9.01641 14.2291C8.68581 13.9327 8.29893 13.7082 7.89801 13.7442C8.77105 13.3748 9.6646 13.0896 10.5711 12.8912C11.7317 12.6577 12.9626 12.5859 14.0246 13.2235C14.2357 13.3491 14.4467 13.5198 14.5381 13.7802C14.6366 14.0586 14.6084 14.301 14.4186 14.4807V14.4807Z" fill="black"/>
<path d="M11.9849 6.04958C12.6109 5.97773 13.2089 6.34587 13.7714 6.71401C14.0739 6.91164 14.3763 7.10023 14.6576 7.32466C15.1856 7.7383 15.6564 8.25918 16.1629 8.70745C16.6694 9.15571 17.232 9.55158 17.8439 9.65928C17.8264 10.0144 17.7489 10.3605 17.6165 10.6737C17.4841 10.9868 17.3001 11.2596 17.0772 11.4732C16.7114 11.32 16.3387 11.132 15.9732 10.9792C15.6989 10.8625 15.4176 10.7548 15.1502 10.6116C13.6379 9.82044 12.4351 8.0516 11.9849 6.04958V6.04958Z" fill="#FDB849"/>
<path d="M11.788 5.74316C13.0189 6.5873 13.7645 8.32933 13.9262 10.0982C14.088 11.867 13.7293 13.6631 13.1596 15.2884C13.0259 14.5162 13.1173 13.6901 13.1525 12.8999C13.2024 11.6946 13.0539 10.4894 12.7164 9.3619C12.5335 8.75124 12.2944 8.16694 12.1116 7.55705C11.9288 6.94716 11.7528 6.39932 11.788 5.74316V5.74316Z" fill="#FFD340"/>
<path d="M18.4277 10.3949C18.3831 10.4294 18.3408 10.4684 18.3011 10.5116C18.287 10.5295 18.2519 10.5744 18.2588 10.6014C18.2729 10.6463 18.3503 10.6372 18.3788 10.6372C18.5165 10.6328 18.6523 10.5965 18.7798 10.53C18.8474 10.4982 18.9077 10.4456 18.9556 10.3768C18.9645 10.3632 18.9704 10.3468 18.9726 10.3293C18.9749 10.3119 18.9734 10.2939 18.9684 10.2774C18.9633 10.2609 18.9549 10.2464 18.944 10.2355C18.9331 10.2245 18.9201 10.2175 18.9064 10.2152C18.8763 10.2063 18.845 10.2063 18.8149 10.2152C18.6779 10.2423 18.5464 10.3033 18.4277 10.3949V10.3949Z" fill="#F2BF8C"/>
<path d="M18.6317 10.5838C18.5197 10.5813 18.4088 10.6121 18.3077 10.6737C18.2795 10.6917 18.2514 10.7275 18.2655 10.7635C18.2687 10.7718 18.2738 10.7787 18.28 10.7834C18.2862 10.7882 18.2934 10.7906 18.3006 10.7905C18.4053 10.8324 18.5154 10.8477 18.6246 10.8354C18.7027 10.8328 18.7804 10.8207 18.8567 10.7994C18.8989 10.7814 19.0185 10.7096 18.9552 10.6377C18.9091 10.6092 18.8587 10.5939 18.8075 10.5928C18.7491 10.5855 18.6904 10.5825 18.6317 10.5838V10.5838Z" fill="#F2BF8C"/>
<path d="M18.3151 10.8348C18.2871 10.8437 18.2589 10.8707 18.2589 10.9067C18.2604 10.92 18.2643 10.9326 18.2705 10.9435C18.2766 10.9545 18.2847 10.9634 18.294 10.9695C18.3796 11.0316 18.477 11.0627 18.5754 11.0593C18.6457 11.0683 18.9763 11.0414 18.8004 10.8707C18.6468 10.7873 18.4753 10.7746 18.3151 10.8348V10.8348Z" fill="#F2BF8C"/>
<path d="M18.6106 11.0051C18.5319 10.9842 18.4509 10.9812 18.3714 10.9962C18.3503 10.9962 18.3222 11.0142 18.3222 11.0411C18.3222 11.05 18.3292 11.059 18.3362 11.0681C18.3772 11.1039 18.4223 11.1311 18.4699 11.1488C18.5345 11.1751 18.6002 11.196 18.6668 11.2116C18.716 11.2297 18.7934 11.2207 18.7723 11.1309C18.7583 11.0681 18.6598 11.0232 18.6106 11.0051V11.0051Z" fill="#F2BF8C"/>
<path d="M14 12.0931C13.7018 10.7742 13.6902 10.5938 13.1876 9.61621C13.2807 9.24128 13.334 8.84346 13.3453 8.43961C13.3458 8.25642 13.322 8.07521 13.2755 7.9083C13.2297 7.77869 13.1681 7.66569 13.0943 7.57627C12.8488 7.24408 12.5507 7.02585 12.2936 6.72215C12.0364 6.41845 11.8143 5.92518 11.8201 5.41281C11.6448 5.29949 11.4401 4.90983 11.2589 4.97571C11.2064 5.46898 11.0196 6.3231 10.7563 6.58876C10.5049 6.84486 10.166 6.97729 10.0432 7.41438C9.92636 7.84144 10.0666 8.32532 10.2244 8.71433C10.4289 9.22028 10.6575 9.69938 10.9082 10.1472C11.2589 10.7638 11.674 11.4187 11.6681 12.2537C12.1884 12.8609 12.5332 12.9083 12.7202 13.9049C13.2373 13.4937 13.6787 12.8688 14 12.0931V12.0931Z" fill="white"/>
<path d="M13.0892 22.8044C13.251 23.7113 13.469 24.6274 13.4057 25.5431C13.4732 25.6215 13.5576 25.672 13.648 25.688C13.7384 25.704 13.8304 25.6848 13.9121 25.6329L13.9754 23.846C13.9895 23.4957 13.9966 23.1455 14.0106 22.8042L13.0892 22.8044Z" fill="#E28A42"/>
<path d="M13.3636 24.3848C13.4162 24.7671 13.4303 25.1563 13.4057 25.5432C13.4732 25.6215 13.5577 25.672 13.648 25.688C13.7384 25.704 13.8304 25.6848 13.9121 25.6329L13.9614 24.1064C13.7757 24.2411 13.5736 24.3352 13.3636 24.3848V24.3848Z" fill="black"/>
<path d="M9.76187 22.8047H8.65787C8.62271 24.0349 8.74932 25.3009 8.87592 26.5221C9.04919 26.59 9.23541 26.5805 9.40392 26.4953C9.34269 25.6028 9.38772 24.7036 9.53748 23.8284C9.59074 23.48 9.66578 23.1377 9.76187 22.8047V22.8047Z" fill="#F2BF8C"/>
<path d="M9.42469 24.6543C9.21405 24.8263 8.9612 24.8935 8.71429 24.8429C8.75699 25.4043 8.81097 25.9641 8.87617 26.522C9.04945 26.5898 9.23567 26.5804 9.40417 26.4951C9.3617 25.8822 9.36857 25.2654 9.42469 24.6543V24.6543Z" fill="black"/>
<path d="M12.9767 23.2354C13.3563 23.2389 13.7347 23.1785 14.102 23.0559C14.1767 21.7738 14.3153 20.4991 14.517 19.2395C14.601 18.6918 14.7069 18.153 14.7702 17.6054C15.0375 15.4861 14.8476 13.2952 14.3271 11.2476C13.8583 11.8472 13.2981 12.3178 12.6812 12.6303C12.6657 14.0989 12.7599 15.5661 12.9626 17.0119C13.0583 17.5364 13.1125 18.0718 13.1244 18.6102C13.1103 19.4274 12.8781 20.2087 12.8078 21.0168C12.7446 21.7808 12.7515 22.5171 12.9767 23.2354Z" fill="black"/>
<path d="M9.69898 23.3975C9.33322 23.5507 8.96758 23.3706 8.60182 23.218C8.38393 22.4106 8.37652 21.5349 8.5807 20.7217C8.79874 19.8686 9.24886 19.1323 9.45286 18.2705C9.55389 17.7568 9.62675 17.2346 9.6709 16.7079C9.91702 14.6515 10.6205 12.739 11.3167 10.8532C11.4557 10.9303 11.6025 10.9818 11.7528 11.0064C12.5526 11.0041 13.3449 10.8089 14.088 10.4312C14.2774 10.8328 14.4106 11.2734 14.4818 11.7334C14.0418 12.3671 13.5435 12.9309 12.9978 13.4124C12.7045 15.6587 11.9633 17.7707 10.8455 19.5453C10.4375 20.1829 10.2899 21.0007 10.0999 21.7722C9.96586 22.311 9.79042 22.8498 9.69898 23.3975V23.3975Z" fill="black"/>
<path d="M11.5699 6.17473C11.7023 6.17877 11.8332 6.13853 11.9497 6.05799C11.8362 5.84634 11.775 5.59613 11.7739 5.33964C11.5629 5.2324 11.3167 4.86364 11.0987 4.926C11.0527 5.2095 10.9844 5.48631 10.8947 5.7522C10.9766 5.88077 11.0794 5.98512 11.196 6.05807C11.3125 6.13101 11.4401 6.17081 11.5699 6.17473Z" fill="#F2BF8C"/>
<path d="M11.5911 5.7612C11.6726 5.79657 11.7581 5.81478 11.8443 5.81513C11.7967 5.67017 11.7728 5.51436 11.7739 5.35721C11.563 5.24997 11.3167 4.88122 11.0987 4.94357C11.0847 5.03335 11.0635 5.14105 11.0424 5.25779C11.1906 5.47998 11.3789 5.65277 11.5911 5.7612Z" fill="black"/>
<path d="M10.6837 5.40234C11.4504 5.98604 11.9005 7.07222 12.1468 8.15902C12.3789 9.1827 12.4708 10.2962 12.2382 11.3198C11.9428 12.6038 11.169 13.6365 10.2969 14.3728C9.78351 14.8039 9.21375 15.1721 8.80575 15.7557C8.81991 15.4774 8.61591 15.2439 8.42595 15.1181C8.11647 14.9116 7.75779 14.8039 7.48347 14.5255C7.35077 14.3907 7.24155 14.2221 7.16277 14.0304C7.08399 13.8387 7.03737 13.6281 7.02591 13.4121C6.99783 12.784 7.27215 12.1908 7.60275 11.7238C7.93335 11.2569 8.33475 10.8708 8.65071 10.3859C9.60063 8.9313 9.67095 6.78467 10.6837 5.40234V5.40234Z" fill="#FFD340"/>
<path d="M12.1467 8.16845C11.9216 7.17173 11.5278 6.17501 10.8737 5.57324C11.1713 6.16096 11.339 6.84047 11.3589 7.53987C11.3681 7.81007 11.3563 8.08076 11.3238 8.348C11.4569 8.53618 11.5682 8.7477 11.6544 8.97612C11.9182 9.69535 12.0527 10.4807 12.0482 11.2749C12.0484 11.5611 12.0272 11.8468 11.9849 12.1279C12.0909 11.8735 12.1758 11.6056 12.2382 11.3287C12.4703 10.2965 12.3788 9.19198 12.1467 8.16845V8.16845Z" fill="#FDB849"/>
<path d="M9.45289 15.1362L9.40369 15.0555C9.61465 14.849 9.83977 14.6604 10.0578 14.4718C10.5526 14.0749 11.0126 13.6113 11.4299 13.089C11.7036 12.7452 11.9003 12.3142 11.9996 11.8407C12.0483 11.5118 12.0504 11.1745 12.0059 10.8446C11.9218 10.0481 11.7239 9.2781 11.4221 8.57282L11.4925 8.51904C11.8008 9.23428 12.0012 10.0171 12.0833 10.8267C12.1276 11.1689 12.1252 11.5183 12.0762 11.8594C11.977 12.352 11.7725 12.7997 11.4854 13.1524C11.0656 13.6829 10.6009 14.1523 10.0999 14.5521C9.88897 14.7411 9.66385 14.9297 9.45289 15.1362V15.1362Z" fill="black"/>
<path d="M10.4234 12.7388C9.78109 13.0112 9.08622 13.0049 8.44702 12.7207C8.51038 12.5591 8.59474 12.4155 8.6581 12.2537C9.25298 12.3902 9.8635 12.3688 10.4516 12.1909C10.4635 12.3743 10.454 12.5589 10.4234 12.7388Z" fill="#FDB849"/>
<path d="M10.4165 10.3765L10.9445 10.6729C11.0008 10.6997 11.0645 10.7536 11.057 10.8345C11.05 10.8883 11.0077 10.9332 11.0077 10.9877C11.0077 11.0423 11.0359 11.0865 11.0288 11.1314C11.0219 11.2122 10.9374 11.2482 10.9088 11.3289C10.8877 11.3919 10.9158 11.4821 10.8737 11.5265C10.8518 11.5477 10.8283 11.5658 10.8034 11.5805C10.7611 11.6073 10.74 11.6612 10.7048 11.6972C10.6585 11.7356 10.6066 11.7617 10.5523 11.774C10.4979 11.7863 10.4421 11.7846 10.3883 11.7689C10.2953 11.7515 10.2035 11.7245 10.114 11.6882C10.2431 11.582 10.3993 11.5436 10.55 11.5809C10.4587 11.554 10.3673 11.518 10.2758 11.5C10.2442 11.4935 10.2135 11.4814 10.1844 11.4642C10.1578 11.4421 10.134 11.4148 10.114 11.3833C10.0676 11.2968 10.0411 11.1955 10.0374 11.0908C10.0337 10.9861 10.053 10.8822 10.093 10.7907C10.1564 10.6058 10.2718 10.4579 10.4165 10.3765V10.3765Z" fill="#F2BF8C"/>
<path d="M10.8595 5.87822C10.7329 5.59986 10.4376 5.5012 10.1913 5.58194C9.95145 5.6826 9.73259 5.85148 9.55126 6.07585C8.74139 7.01871 8.05934 8.1262 7.53274 9.35341C7.44462 9.50918 7.40455 9.70095 7.42018 9.89206C7.45533 10.0371 7.52397 10.1653 7.6171 10.2597C8.26128 11.02 9.07999 11.4954 9.95218 11.6157C10.129 11.4993 10.272 11.3136 10.3602 11.0859C10.4657 10.8464 10.5371 10.585 10.5711 10.3137C10.2018 9.92614 9.77293 9.64167 9.31222 9.47857C9.63622 9.11089 9.95926 8.71533 10.2617 8.32958C10.529 7.98825 10.7963 7.62011 10.9369 7.17123C11.0078 6.96405 11.0378 6.73785 11.0243 6.51243C11.0108 6.28701 10.9542 6.06925 10.8595 5.87822V5.87822Z" fill="#FDB849"/>
<path d="M12.9978 26.064L13.0189 26.1179C13.0611 26.2077 13.1736 26.2526 13.237 26.2975C13.3407 26.3645 13.4492 26.4186 13.561 26.4591C13.8026 26.5609 14.0493 26.6419 14.2995 26.7016C14.5525 26.7582 14.8095 26.7792 15.0661 26.7644C15.2716 26.7597 15.4763 26.7327 15.6781 26.6835C15.6923 26.6297 15.7133 26.5763 15.7275 26.5219C15.7561 26.5126 15.7842 26.5007 15.8115 26.486C15.7341 25.9023 15.2559 25.9023 15.0237 25.8216C14.7409 25.6391 14.4683 25.432 14.2077 25.2019C14.2288 25.0584 14.2499 24.9056 14.2639 24.7619C14.271 24.6991 14.271 24.6184 14.2428 24.5914C14.2362 24.5839 14.2284 24.5783 14.2198 24.5752C14.2113 24.5721 14.2024 24.5714 14.1936 24.5733C14.148 24.5691 14.1023 24.5783 14.0599 24.6003C13.9967 24.6363 13.9333 24.6633 13.8701 24.6991C13.8042 24.7263 13.744 24.7723 13.6942 24.8338C13.6661 24.8698 13.645 24.9138 13.6328 24.9622C13.6206 25.0106 13.6175 25.062 13.6239 25.1121C13.5114 24.9589 13.3989 24.7979 13.2863 24.6452C13.2578 24.735 13.2366 24.8283 13.2229 24.9236C13.216 25.0224 13.2511 25.1391 13.3069 25.1481C13.2108 25.3607 13.0725 25.5372 12.906 25.66C12.892 25.6689 12.8778 25.6779 12.8778 25.7049C12.8767 25.7204 12.8792 25.736 12.8849 25.7498C12.9035 25.864 12.9421 25.9714 12.9978 26.064V26.064Z" fill="#643CFF"/>
<path d="M14.4115 26.6477C14.5837 26.6849 14.7575 26.7089 14.932 26.7196C15.115 26.7271 15.2981 26.7211 15.4806 26.7016C15.5509 26.6926 15.6143 26.6836 15.6846 26.6747C15.6979 26.6221 15.7144 26.5709 15.7338 26.5215H15.7409C15.2556 26.5575 14.7773 26.5575 14.292 26.5754C14.2427 26.5769 14.1933 26.5739 14.1443 26.5665C14.2302 26.6083 14.3201 26.6356 14.4115 26.6477V26.6477Z" fill="white"/>
<path d="M14.4467 26.6119C14.2651 26.5853 14.0845 26.5495 13.9051 26.5046C13.7457 26.4663 13.5883 26.4151 13.4339 26.3514C13.2767 26.2779 13.1277 26.1783 12.9907 26.0551V26.064C12.9214 26.1594 12.8377 26.2358 12.7446 26.2886C12.7538 26.5068 12.7894 26.7218 12.8501 26.9261C13.0184 27.0005 13.1932 27.0487 13.3705 27.0698C13.5415 27.0725 13.7089 27.0065 13.8489 26.8812C13.8886 26.8525 13.9334 26.8374 13.979 26.8374C14.0246 26.8374 14.0695 26.8525 14.1091 26.8812C14.1909 26.9334 14.2667 26.9999 14.3341 27.0787C14.6928 27.4464 15.1923 27.1147 15.5932 26.8991C15.6295 26.8331 15.6578 26.7604 15.6772 26.6836C15.6186 26.6881 15.5599 26.6881 15.5014 26.6836C15.1571 26.6747 14.7984 26.6656 14.4467 26.6119V26.6119ZM14.1232 25.8306L14.0809 25.7408C14.2355 25.6333 14.3626 25.4712 14.4467 25.2738L14.517 25.3277C14.4233 25.5372 14.2873 25.7108 14.1232 25.8306V25.8306ZM14.4959 25.9743L14.4327 25.9024C14.5312 25.7549 14.6184 25.5955 14.6928 25.4266L14.7633 25.4803C14.6889 25.6572 14.5992 25.8229 14.4959 25.9743V25.9743ZM13.8066 25.624L13.7715 25.5252C13.9378 25.4402 14.0869 25.3083 14.2075 25.1392L14.2709 25.202C14.1469 25.3909 13.9871 25.5362 13.8066 25.624V25.624Z" fill="black"/>
<path d="M8.34155 26.7999C8.33447 26.7999 8.33447 26.8089 8.34155 26.7999C8.34155 26.8268 8.35559 26.8359 8.36267 26.8628C8.41729 26.9612 8.48965 27.0412 8.57363 27.0963C8.67119 27.1831 8.77479 27.2582 8.88311 27.3208C9.11195 27.4623 9.34956 27.5794 9.59351 27.671C9.83369 27.7612 10.0818 27.8127 10.332 27.8242C10.5292 27.8377 10.7269 27.8287 10.9229 27.7974C10.9424 27.7389 10.9588 27.6789 10.9721 27.6177C10.9932 27.6088 11.0284 27.5997 11.0561 27.5907C10.9927 26.9166 10.5281 26.8634 10.3105 26.7467C10.198 26.6839 9.74783 26.19 9.52979 25.9565C9.55825 25.7906 9.57936 25.6227 9.59303 25.4537C9.605 25.3838 9.59754 25.3107 9.57191 25.247C9.56667 25.2392 9.56024 25.2327 9.553 25.2281C9.54576 25.2235 9.53787 25.2208 9.52979 25.2202C9.48722 25.2077 9.44259 25.2141 9.40319 25.2382C9.33983 25.2651 9.27647 25.301 9.21323 25.3279C9.14819 25.3517 9.08969 25.3984 9.04439 25.4626C9.01504 25.505 8.99349 25.5552 8.98132 25.6096C8.96915 25.664 8.96668 25.7212 8.97407 25.777C8.86859 25.5884 8.76311 25.3907 8.65763 25.2021C8.62176 25.3012 8.6003 25.4077 8.59427 25.5165C8.58719 25.6333 8.61539 25.7679 8.67167 25.7858C8.58015 26.0122 8.4414 26.2018 8.27075 26.3337C8.25671 26.3426 8.24255 26.3516 8.24255 26.3786V26.4235C8.25524 26.5562 8.28892 26.6843 8.34155 26.7999Z" fill="#9778FF"/>
<path d="M9.68497 27.7076C9.85258 27.7784 10.0243 27.8325 10.1985 27.8692C10.3694 27.8827 10.5409 27.8827 10.7119 27.8692C10.7842 27.8584 10.8538 27.8278 10.9159 27.7794C10.9301 27.7257 10.9511 27.6627 10.9653 27.6089C10.9653 27.6089 10.6206 27.7975 9.36157 27.4922C9.46488 27.5745 9.573 27.6465 9.68497 27.7076V27.7076Z" fill="white"/>
<path d="M13.3871 3.31412C13.4202 3.3074 13.4541 3.31687 13.4819 3.34063C13.5065 3.37315 13.5204 3.41656 13.5205 3.46178C13.5187 3.61182 13.4849 3.7584 13.4226 3.88566C13.3396 4.07869 13.227 4.26795 13.0669 4.35127C13.044 4.36611 13.0177 4.37012 12.9928 4.36258C12.9778 4.35323 12.9649 4.33938 12.9551 4.32224C12.9453 4.3051 12.9389 4.28517 12.9365 4.26418C12.895 4.04464 12.9988 3.80995 13.0699 3.61692C13.0976 3.53564 13.1415 3.46498 13.1971 3.41188C13.2527 3.35879 13.3182 3.3251 13.3871 3.31412V3.31412Z" fill="#F2BF8C"/>
<path d="M13.4374 3.4585C13.3522 3.57121 13.2757 3.69416 13.2091 3.82564C13.2565 3.80296 13.301 3.78027 13.3484 3.75753C13.2823 3.96188 13.1615 4.12958 13.0075 4.23067C13.0164 4.2269 13.046 4.00736 13.055 3.97707C13.0714 3.9179 13.0923 3.86086 13.1172 3.80673C13.2083 3.6691 13.3165 3.55146 13.4374 3.4585V3.4585Z" fill="#E28A42"/>
<path d="M11.3442 1.52434C11.6615 1.54703 11.9224 1.83468 12.2069 2.0088C12.3416 2.08823 12.4815 2.15281 12.6249 2.20183C12.8153 2.28076 13.0124 2.33031 13.212 2.34943C13.413 2.36665 13.6136 2.31019 13.7902 2.18668C13.888 2.11097 13.9799 1.99366 13.9977 1.84983C14.0155 1.68331 13.9266 1.51674 13.805 1.44485C13.6805 1.38113 13.5418 1.37977 13.4166 1.44102C13.4981 1.35024 13.5673 1.24279 13.6212 1.12308C13.6436 1.07998 13.6578 1.03079 13.6627 0.979431C13.6686 0.865708 13.6004 0.767488 13.5233 0.706916C13.3129 0.536392 13.046 0.559137 12.8029 0.608337C12.5598 0.661547 12.3078 0.737023 12.0677 0.668909C11.9164 0.62348 11.7741 0.521249 11.617 0.502335C11.4766 0.487569 11.3373 0.543245 11.2286 0.657537C11.1202 0.773625 11.0521 0.939524 11.0389 1.11931C10.9177 1.14199 10.803 1.20354 10.7055 1.2982C10.608 1.39286 10.5309 1.51753 10.4815 1.66057C10.4479 1.77645 10.426 1.8973 10.4162 2.02023C10.4044 2.22944 10.4044 2.43948 10.4162 2.6487C10.434 3.13321 10.4518 3.6215 10.5526 4.08704C10.5793 4.20813 10.6149 4.33687 10.7038 4.39362C10.7929 4.45419 10.9084 4.40876 10.9825 4.3179C11.0501 4.22059 11.0979 4.10364 11.1219 3.97727C11.2849 3.26944 11.2197 2.50864 11.2849 1.77435C11.29 1.68646 11.3103 1.60109 11.3442 1.52434V1.52434Z" fill="black"/>
<path d="M13.2476 2.37965C13.2728 2.8513 13.2549 3.32511 13.1942 3.79148C13.138 4.20782 13.0579 4.74531 12.8236 5.05948C12.6655 5.25887 12.4556 5.37737 12.2337 5.39257C11.8889 5.43003 11.5435 5.33231 11.2434 5.11245C10.8696 4.8324 10.769 4.42737 10.7097 3.90125C10.6659 3.55585 10.6441 3.20647 10.6446 2.85656C10.6506 2.37965 10.7128 1.74376 10.9678 1.36907C11.0851 1.19872 11.2298 1.06257 11.3919 0.969834C11.5541 0.877098 11.7299 0.82995 11.9076 0.831584C12.3553 0.839126 12.7377 1.13816 13.0016 1.57377C13.1447 1.80524 13.2304 2.08594 13.2477 2.37994" fill="#F2BF8C"/>
<path d="M13.0224 1.5583C12.7585 1.12298 12.376 0.808871 11.9284 0.80127C11.7441 0.804371 11.5624 0.856075 11.3946 0.953135C11.2268 1.05019 11.0765 1.19051 10.9532 1.36527C10.6982 1.73996 10.6152 2.39859 10.6093 2.87551C10.6063 3.11396 10.6538 3.33345 10.6745 3.57191C10.6923 3.58328 10.7101 3.59842 10.7279 3.60979C10.7427 3.61734 10.7783 3.64385 10.796 3.62871C10.8109 3.61734 10.8139 3.57191 10.8139 3.55688C10.8188 3.51429 10.8207 3.47123 10.8198 3.4282C10.8203 3.34208 10.8252 3.25611 10.8346 3.17083C10.8716 2.80805 10.9514 2.45452 11.0713 2.12225C11.2107 1.74756 11.4568 1.5091 11.774 1.72122C12.0616 1.91425 12.3017 2.25111 12.5508 2.51608C12.7672 2.74694 13.037 2.74317 12.9896 2.51985C12.9555 2.38382 12.9297 2.24462 12.9125 2.10351C13.0396 2.21991 13.1894 2.28932 13.3454 2.30414C13.55 2.31168 13.8168 2.20568 13.9324 1.97494C13.9581 1.92688 13.9728 1.87063 13.9749 1.8125C13.977 1.75436 13.9664 1.69662 13.9442 1.64575" fill="black"/>
<path d="M10.5704 2.98545C10.4933 2.92104 10.3955 2.87172 10.3155 2.92487C10.2782 2.95266 10.2491 2.99516 10.2324 3.04596C10.1762 3.20116 10.1996 3.38665 10.2532 3.54562C10.3469 3.82773 10.519 4.05559 10.7365 4.18528C10.7927 4.21933 10.861 4.24208 10.9114 4.20042C10.9403 4.17244 10.9603 4.13204 10.9677 4.0867C10.9939 3.9553 10.9887 3.81689 10.9528 3.68927C10.8788 3.39042 10.7809 3.1595 10.5704 2.98545V2.98545Z" fill="#F2BF8C"/>
<path d="M10.8106 3.93511C10.7778 3.44688 10.5912 3.27671 10.4103 3.09865C10.5141 3.27653 10.6119 3.44305 10.6653 3.65529C10.612 3.62123 10.5023 3.5758 10.4371 3.59849C10.5794 3.69312 10.6208 3.74609 10.8106 3.93535V3.93511ZM12.3137 2.93555C12.307 3.12219 12.3292 3.30869 12.379 3.48441C12.4234 3.62446 12.5153 3.75692 12.6398 3.77206C12.5176 3.86911 12.3816 3.93467 12.2396 3.96503C12.1715 3.65104 12.2219 3.23847 12.3137 2.93555Z" fill="#E28A42"/>
<path d="M12.4324 3.25385C12.5332 3.10625 12.714 2.92076 12.8652 2.9435C13.0165 2.96625 13.1559 3.07219 13.2091 3.36362C13.2091 3.36362 13.0966 3.47339 12.8385 3.44694C12.6914 3.43359 12.5505 3.36656 12.4324 3.25385V3.25385ZM11.2701 3.12133C11.371 2.97373 11.5518 2.78824 11.703 2.81099C11.8542 2.83373 11.9937 2.93967 12.0469 3.2311C12.0469 3.2311 11.9344 3.34087 11.6763 3.31436C11.5294 3.29996 11.3887 3.23307 11.2701 3.12133V3.12133Z" fill="white"/>
<path d="M13.0135 3.3825C13.0172 3.2682 13.0394 3.15611 13.0787 3.0533C13.0182 2.9887 12.9438 2.94905 12.8652 2.93958C12.714 2.91684 12.5332 3.10609 12.4324 3.24992C12.5497 3.36445 12.6911 3.43166 12.8385 3.44295C12.8958 3.44959 12.9534 3.44832 13.0105 3.43918C13.013 3.42046 13.014 3.40147 13.0135 3.3825V3.3825ZM11.8987 2.90175C11.8421 2.8496 11.7755 2.8182 11.706 2.81095C11.5548 2.78821 11.3739 2.97747 11.2731 3.1213C11.3904 3.23582 11.5319 3.30304 11.6793 3.31433C11.7375 3.32088 11.7962 3.31961 11.8542 3.31055C11.8431 3.1717 11.8584 3.03148 11.8987 2.90175V2.90175Z" fill="black"/>
<path d="M11.5222 4.18848C11.5222 4.48374 11.8572 4.74111 12.3197 4.57459" stroke="black" stroke-width="0.30276" stroke-linejoin="round"/>
<path d="M12.2041 2.27024C12.1833 2.4103 12.1744 2.51253 12.0795 2.54659C11.9402 2.59579 11.6942 2.46333 11.5518 2.44059C11.4183 2.42156 11.285 2.49338 11.1604 2.5655C11.2375 2.43682 11.2908 2.26623 11.4154 2.22865C11.4591 2.21611 11.504 2.21102 11.5488 2.2135C11.7475 2.2135 12.0084 2.25133 12.2041 2.27024V2.27024ZM13.2892 2.77368C13.2735 2.73289 13.2513 2.69678 13.224 2.66767C13.1706 2.61093 13.0935 2.61093 13.0283 2.61093C12.9482 2.61093 12.8682 2.61093 12.7881 2.6147C12.7683 2.61832 12.7482 2.6161 12.7292 2.60823C12.7102 2.60035 12.6928 2.58703 12.6785 2.56927C12.6708 2.55001 12.6648 2.52969 12.6607 2.5087C12.6517 2.45196 12.6429 2.39899 12.634 2.34219C12.8004 2.3295 12.9674 2.33966 13.1321 2.37248C13.1638 2.37551 13.1939 2.39143 13.218 2.4179C13.2411 2.4471 13.2575 2.48371 13.2655 2.52385C13.276 2.57063 13.2819 2.61887 13.2833 2.6675C13.2886 2.70246 13.2906 2.73811 13.2892 2.77368V2.77368Z" fill="black"/>
</svg>
