<svg width="24" height="24" viewBox="0 0 24 24" fill="none" xmlns="http://www.w3.org/2000/svg">
<path d="M21.2481 13.5891C21.5436 13.1671 21.5013 12.5129 21.1004 12.1964C20.92 12.0673 20.7091 11.9873 20.4884 11.9643C20.2592 11.9312 20.0254 11.9479 19.8033 12.0135C19.5811 12.079 19.3757 12.1918 19.2012 12.3441C19.0296 12.5005 18.9081 12.7041 18.8518 12.9294C18.7955 13.1546 18.8069 13.3915 18.8847 13.6102C19.2576 14.5387 20.7627 14.2787 21.2481 13.5891V13.5891Z" fill="#FFD340"/>
<path d="M8.24304 23.9988C6.66048 23.6261 5.1132 23.2461 3.50952 22.9578C5.98536 21.741 8.44704 20.5098 10.9158 19.2722C11.2464 19.4833 11.591 19.5817 11.9639 19.7154C13.3213 19.209 14.5452 18.6463 15.8534 18.0273C16.5427 18.7095 17.0774 19.4193 17.7734 20.1021C18.2166 19.8771 18.5682 19.6802 19.0114 19.4622C20.1227 20.3622 21.248 21.3894 22.3031 22.353C21.1777 22.7328 20.0734 23.1477 18.948 23.5275C18.0433 23.1731 17.112 22.8909 16.1628 22.6835C13.469 23.2668 11.2464 23.5908 8.24304 23.9988Z" fill="#14D29B"/>
<path d="M13.3565 20.4258C12.9204 20.5875 12.1397 21.2628 12.0694 21.2628C11.5137 21.2628 9.14341 21.2697 8.91829 21.2275C8.48989 21.4455 6.74498 22.0505 6.3299 22.1988C6.5549 22.2621 7.76474 22.4731 8.10938 22.6489C8.20778 22.6982 7.82798 23.2116 7.82798 23.2187C8.06006 23.1905 11.0775 22.5434 11.8301 22.4027C11.9215 22.3886 12.4209 22.7121 12.6461 22.7684C13.033 22.5504 15.2203 21.5234 15.5158 21.425C15.5791 21.4039 16.3879 21.7766 16.7748 21.8681C17.3727 21.636 17.9283 21.2913 18.5191 21.0241C18.0619 20.8412 17.6191 20.6443 17.1757 20.4263L13.3565 20.4258Z" fill="#008C6E"/>
<path d="M12.3788 17.401C11.3519 17.2322 11.0917 17.113 10.6345 16.705C10.1773 16.297 9.66384 15.8259 9.05196 15.8751C8.85504 15.8891 8.66508 15.9591 8.46816 15.9591C8.04612 15.9591 7.70148 15.6496 7.37796 15.3895C6.67464 14.8197 5.81652 14.3767 4.91616 14.4188C4.0158 14.4609 3.1086 15.1363 3.04524 16.0365C3.00312 16.6132 2.18016 16.8946 1.65972 17.1549C1.13322 17.4046 0.578126 17.5888 0.00683594 17.7034C0.815636 17.6965 9.00972 17.4502 12.3788 17.401V17.401Z" fill="#9778FF"/>
<path d="M10.1492 17.113C9.78348 16.9442 9.46692 16.705 9.10116 16.5292C8.88674 16.4217 8.65162 16.3617 8.41188 16.3534C8.17418 16.3521 7.93672 16.3685 7.70148 16.4026C7.50621 16.4342 7.30775 16.4413 7.11072 16.4237C6.95054 16.4008 6.79431 16.3558 6.64644 16.2901C6.38065 16.1502 6.12869 15.9854 5.89392 15.7981C5.6525 15.6024 5.37184 15.4609 5.07096 15.3831C4.68745 15.3145 4.29203 15.3817 3.95268 15.5731C3.62208 15.756 3.1578 16.213 2.96088 16.2904C2.74284 16.7054 2.08872 16.9376 1.65288 17.1556C1.1264 17.4053 0.5713 17.5895 0 17.7042C0.71748 17.6972 7.21644 17.5002 11.0426 17.4162C10.7337 17.3514 10.4338 17.2496 10.1492 17.113V17.113Z" fill="#643CFF"/>
<path d="M23.316 14.7355C22.7482 14.6209 22.2169 14.3696 21.768 14.0035C21.353 13.6795 20.8184 13.3705 20.34 13.5745C20.1431 13.6585 19.9671 13.8207 19.7491 13.8136C19.3622 13.7926 19.2638 13.2791 19.088 12.9414C18.7574 12.3155 17.8993 12.1467 17.2311 12.3787C16.563 12.6108 16.0565 13.1385 15.5642 13.6449C15.5571 13.3354 15.2477 13.1033 14.9382 13.0891C14.6287 13.075 14.3403 13.2299 14.0941 13.4057C13.644 13.7221 13.2501 14.1161 12.8 14.4396C12.3499 14.7631 12.0403 14.8476 11.2667 14.946C15.5861 14.9536 19.1521 14.9536 23.316 14.7355Z" fill="#9778FF"/>
<path d="M21.5435 14.0816C21.2838 13.925 20.9798 13.8583 20.6784 13.8916C20.3971 13.9268 20.1298 14.0464 19.8485 14.0886C19.6609 14.1311 19.4649 14.1164 19.2858 14.0464C19.1096 13.9488 18.9655 13.8022 18.8708 13.6244C18.7452 13.3914 18.589 13.1761 18.4066 12.9843C18.2149 12.796 17.991 12.6435 17.7455 12.5342C17.5798 12.4593 17.4046 12.4072 17.2249 12.3794C16.5568 12.6116 16.0504 13.1391 15.558 13.6455C15.5509 13.336 15.2414 13.104 14.932 13.0898C14.6225 13.0756 14.3341 13.2306 14.088 13.4064C13.6379 13.7228 13.2439 14.1168 12.7938 14.4403C12.3437 14.7638 12.0342 14.8483 11.2604 14.9467C15.4174 14.9538 18.8778 14.9538 22.8448 14.7638C22.3876 14.6091 21.9796 14.3208 21.5435 14.0816V14.0816Z" fill="#643CFF"/>
<path d="M17.1687 2.87012L16.9225 4.8536H17.6751L17.9142 3.25688L17.1687 2.87012V2.87012Z" fill="black"/>
<path d="M19.4967 2.56055C18.8497 2.85587 18.083 2.56055 17.3867 2.70827C17.3165 2.71518 17.2514 2.74774 17.2038 2.79971C17.1123 2.91971 17.232 3.09503 17.3586 3.17243C17.4852 3.24983 17.6466 3.31307 17.6961 3.46043C17.7524 3.62927 17.6047 3.80507 17.436 3.85439C17.2627 3.887 17.0841 3.87733 16.9154 3.82619C16.0994 3.65039 15.1922 3.58703 14.4818 4.03019C15.0234 4.08647 15.2625 4.58579 15.5649 5.03603C15.8673 5.48627 16.2121 5.98547 16.7396 6.09803C16.803 6.1195 16.8714 6.12089 16.9356 6.10201C16.9998 6.08313 17.0566 6.04491 17.0983 5.99255C17.1335 5.92919 17.2671 5.32439 17.2812 5.32439H17.2883C17.865 5.40167 18.4065 5.82371 18.9833 5.72531C19.3211 4.70429 19.4945 3.63602 19.4967 2.56055V2.56055Z" fill="#14D29B"/>
<path d="M17.2812 5.31772H17.2883C17.3234 5.3248 17.5555 5.38108 17.5836 5.38804C17.6469 5.00824 17.7173 4.54408 17.8016 4.17124C17.9142 3.65776 17.9564 3.17956 18.1041 2.67316C17.8621 2.656 17.6189 2.6678 17.3797 2.70832C17.3096 2.7152 17.2444 2.74777 17.1968 2.79976C17.1054 2.91976 17.2249 3.09508 17.3515 3.17248C17.4781 3.24988 17.6395 3.31312 17.6892 3.46048C17.7054 3.5108 17.7054 3.56495 17.6892 3.61528C17.6469 3.784 17.5484 4.05136 17.5063 4.22008C17.4429 4.46668 17.2739 5.31064 17.2812 5.31772V5.31772Z" fill="#008C6E"/>
<path d="M18.3503 8.80663C18.4031 8.82055 18.4574 8.82764 18.512 8.82775C18.5399 8.82663 18.5671 8.81906 18.5915 8.80562C18.616 8.79219 18.6369 8.77327 18.6528 8.75035C18.688 8.70115 18.8146 8.75743 18.8426 8.70115C18.8638 8.65195 18.7723 8.56051 18.8004 8.55343C18.8426 8.53939 18.8844 8.51827 18.9204 8.50423C18.9274 8.49715 18.9415 8.49715 18.9485 8.49007C18.9626 8.47603 18.9556 8.45491 18.9485 8.44087C18.9414 8.42683 18.9274 8.41279 18.9204 8.39863C18.8993 8.34247 18.9626 8.23687 18.9626 8.18059C18.9556 8.11027 18.8641 8.10331 18.8008 8.06815C18.7558 8.03828 18.7058 8.01681 18.6532 8.00479C18.6151 7.99904 18.5761 8.0039 18.5406 8.01883C18.3437 8.06107 18.1537 8.13139 17.9568 8.17363C17.8286 8.19108 17.7047 8.23175 17.591 8.29363C17.5599 8.318 17.5366 8.35103 17.524 8.38857C17.5115 8.42611 17.5104 8.46651 17.5207 8.50471C17.6892 8.73583 18.0899 8.74987 18.3503 8.80663V8.80663Z" fill="#E28A42"/>
<path d="M16.4084 20.6735L19.5301 1.771L19.773 1.81108L16.6513 20.7136L16.4084 20.6735Z" fill="black"/>
<path d="M18.0268 8.49653C18.1358 8.43986 18.2335 8.36354 18.3148 8.27141C18.3822 8.18062 18.4752 8.11204 18.5819 8.07449C18.6659 8.04641 18.8633 7.98305 18.8351 7.85645C18.6733 7.88465 18.4343 7.95497 18.2935 7.96193C18.1615 7.96075 18.0298 7.949 17.8997 7.92677C17.768 7.90573 17.633 7.92537 17.5128 7.98305C17.3722 8.06705 17.323 8.1238 17.3651 8.28556C17.4149 8.48248 17.8087 8.59505 18.0268 8.49653Z" fill="#F2BF8C"/>
<path d="M14.4186 11.4509C13.8321 11.8941 13.1507 12.195 12.428 12.33C11.5981 12.4848 10.7048 12.4074 9.98001 11.9713C9.63537 11.7673 9.34701 11.486 9.01641 11.2538C8.68581 11.0216 8.29893 10.8458 7.89801 10.874C8.77105 10.5846 9.6646 10.3613 10.5711 10.2059C11.7317 10.023 12.9626 9.9667 14.0246 10.4661C14.2357 10.5645 14.4467 10.6982 14.5381 10.9022C14.6366 11.1203 14.6084 11.3101 14.4186 11.4509V11.4509Z" fill="black"/>
<path d="M11.9849 4.84694C12.6109 4.79066 13.2089 5.07902 13.7714 5.36738C14.0739 5.52218 14.3763 5.6699 14.6576 5.8457C15.1856 6.1697 15.6564 6.5777 16.1629 6.92882C16.6694 7.27994 17.232 7.59002 17.8439 7.67438C17.8264 7.95256 17.7489 8.22365 17.6165 8.46894C17.4841 8.71423 17.3001 8.92789 17.0772 9.09518C16.7114 8.97518 16.3387 8.82794 15.9732 8.7083C15.6989 8.61686 15.4176 8.5325 15.1502 8.4203C13.6379 7.80062 12.4351 6.4151 11.9849 4.84694V4.84694Z" fill="#FDB849"/>
<path d="M11.788 4.60693C13.0189 5.26813 13.7645 6.63265 13.9262 8.01817C14.088 9.40369 13.7293 10.8106 13.1596 12.0837C13.0259 11.4787 13.1173 10.8317 13.1525 10.2127C13.2024 9.26865 13.0539 8.32458 12.7164 7.44145C12.5335 6.96313 12.2944 6.50545 12.1116 6.02773C11.9288 5.55001 11.7528 5.12089 11.788 4.60693V4.60693Z" fill="#FFD340"/>
<path d="M18.4277 8.25047C18.3831 8.27752 18.3408 8.3081 18.3011 8.34191C18.287 8.35595 18.2519 8.39111 18.2588 8.41223C18.2729 8.44739 18.3503 8.44031 18.3788 8.44031C18.5165 8.43686 18.6523 8.40839 18.7798 8.35631C18.8474 8.33142 18.9077 8.2902 18.9556 8.23631C18.9645 8.22567 18.9704 8.21284 18.9726 8.19914C18.9749 8.18545 18.9734 8.17141 18.9684 8.15847C18.9633 8.14554 18.9549 8.13419 18.944 8.12561C18.9331 8.11704 18.9201 8.11155 18.9064 8.10971C18.8763 8.10275 18.845 8.10275 18.8149 8.10971C18.6779 8.13097 18.5464 8.17878 18.4277 8.25047V8.25047Z" fill="#F2BF8C"/>
<path d="M18.6317 8.39868C18.5197 8.39675 18.4088 8.42086 18.3077 8.46912C18.2795 8.48316 18.2514 8.51124 18.2655 8.53944C18.2687 8.5459 18.2738 8.55131 18.28 8.55505C18.2862 8.55878 18.2934 8.56069 18.3006 8.56056C18.4053 8.59342 18.5154 8.60537 18.6246 8.59572C18.7027 8.59368 18.7804 8.58424 18.8567 8.56752C18.8989 8.55348 19.0185 8.4972 18.9552 8.44092C18.9091 8.4186 18.8587 8.4066 18.8075 8.40576C18.7491 8.4 18.6904 8.39764 18.6317 8.39868V8.39868Z" fill="#F2BF8C"/>
<path d="M18.3151 8.59527C18.2871 8.60223 18.2589 8.62335 18.2589 8.65155C18.2604 8.66196 18.2643 8.67186 18.2705 8.68042C18.2766 8.68897 18.2847 8.69595 18.294 8.70075C18.3796 8.74942 18.477 8.77373 18.5754 8.77107C18.6457 8.77815 18.9763 8.75703 18.8004 8.62335C18.6468 8.55802 18.4753 8.54809 18.3151 8.59527V8.59527Z" fill="#F2BF8C"/>
<path d="M18.6106 8.72869C18.5319 8.7123 18.4509 8.70994 18.3714 8.72173C18.3503 8.72173 18.3222 8.73577 18.3222 8.75689C18.3222 8.76385 18.3292 8.77093 18.3362 8.77801C18.3772 8.80606 18.4223 8.82741 18.4699 8.84125C18.5345 8.8618 18.6002 8.87823 18.6668 8.89045C18.716 8.90461 18.7934 8.89753 18.7723 8.82721C18.7583 8.77801 18.6598 8.74285 18.6106 8.72869V8.72869Z" fill="#F2BF8C"/>
<path d="M14.3975 9.25642C14.0387 8.27878 14.0247 8.1451 13.4199 7.42042C13.5319 7.1425 13.5961 6.84761 13.6097 6.54826C13.6103 6.41247 13.5817 6.27815 13.5257 6.15442C13.4706 6.05835 13.3964 5.97458 13.3077 5.9083C13.0122 5.66206 12.6535 5.5003 12.3441 5.27518C12.0346 5.05006 11.7673 4.68442 11.7743 4.30462C11.5633 4.22062 11.3171 3.93178 11.0991 3.98062C11.0358 4.34626 10.8111 4.97938 10.4943 5.1763C10.1917 5.36614 9.78385 5.4643 9.63613 5.7883C9.49549 6.10486 9.66421 6.46354 9.85417 6.7519C10.1002 7.12694 10.3753 7.48207 10.677 7.81402C11.0991 8.2711 11.5985 8.7565 11.5914 9.37546C12.2175 9.82558 12.6324 9.86074 12.8574 10.5995C13.4797 10.2946 14.0108 9.83145 14.3975 9.25642V9.25642Z" fill="white"/>
<path d="M13.0892 17.9708C13.251 18.6812 13.469 19.3988 13.4057 20.1161C13.4732 20.1774 13.5576 20.217 13.648 20.2295C13.7384 20.2421 13.8304 20.227 13.9121 20.1864L13.9754 18.7867C13.9895 18.5124 13.9966 18.2381 14.0106 17.9707L13.0892 17.9708Z" fill="#E28A42"/>
<path d="M13.3636 19.2088C13.4162 19.5082 13.4303 19.8131 13.4057 20.1161C13.4732 20.1775 13.5577 20.217 13.648 20.2296C13.7384 20.2421 13.8304 20.2271 13.9121 20.1864L13.9614 18.9907C13.7757 19.0962 13.5736 19.1699 13.3636 19.2088V19.2088Z" fill="black"/>
<path d="M9.76187 17.9712H8.65787C8.62271 18.9348 8.74932 19.9265 8.87592 20.883C9.04919 20.9362 9.23541 20.9288 9.40392 20.862C9.34269 20.1629 9.38772 19.4586 9.53748 18.773C9.59074 18.5002 9.66578 18.232 9.76187 17.9712V17.9712Z" fill="#F2BF8C"/>
<path d="M9.42469 19.4199C9.21405 19.5547 8.9612 19.6073 8.71429 19.5676C8.75699 20.0074 8.81097 20.4459 8.87617 20.8828C9.04945 20.936 9.23567 20.9286 9.40417 20.8618C9.3617 20.3818 9.36857 19.8986 9.42469 19.4199V19.4199Z" fill="black"/>
<path d="M12.9767 18.3085C13.3563 18.3112 13.7347 18.2639 14.102 18.1678C14.1767 17.1636 14.3153 16.1651 14.517 15.1785C14.601 14.7495 14.7069 14.3275 14.7702 13.8985C15.0375 12.2385 14.8476 10.5224 14.3271 8.91846C13.8583 9.38817 13.2981 9.75679 12.6812 10.0016C12.6657 11.1519 12.7599 12.3011 12.9626 13.4336C13.0583 13.8444 13.1125 14.2639 13.1244 14.6855C13.1103 15.3256 12.8781 15.9376 12.8078 16.5706C12.7446 17.1691 12.7515 17.7458 12.9767 18.3085Z" fill="black"/>
<path d="M9.69898 18.4352C9.33322 18.5552 8.96758 18.4141 8.60182 18.2946C8.38393 17.6622 8.37652 16.9763 8.5807 16.3393C8.79874 15.671 9.24886 15.0943 9.45286 14.4193C9.55389 14.0169 9.62675 13.6079 9.6709 13.1953C9.91702 11.5846 10.6205 10.0865 11.3167 8.60941C11.4557 8.66975 11.6025 8.71015 11.7528 8.72941C12.5526 8.72756 13.3449 8.57469 14.088 8.27881C14.2774 8.59341 14.4106 8.93855 14.4818 9.29881C14.0418 9.79523 13.5435 10.2368 12.9978 10.614C12.7045 12.3735 11.9633 14.0278 10.8455 15.4178C10.4375 15.9173 10.2899 16.5578 10.0999 17.1622C9.96586 17.5842 9.79042 18.0062 9.69898 18.4352V18.4352Z" fill="black"/>
<path d="M11.5699 4.94507C11.7023 4.94824 11.8332 4.91671 11.9497 4.85363C11.8362 4.68784 11.775 4.49186 11.7739 4.29095C11.5629 4.20695 11.3167 3.91811 11.0987 3.96695C11.0527 4.18901 10.9844 4.40584 10.8947 4.61411C10.9766 4.71481 11.0794 4.79655 11.196 4.85369C11.3125 4.91082 11.4401 4.942 11.5699 4.94507Z" fill="#F2BF8C"/>
<path d="M11.5911 4.62106C11.6726 4.64876 11.7581 4.66303 11.8443 4.6633C11.7967 4.54975 11.7728 4.42771 11.7739 4.30462C11.563 4.22062 11.3167 3.93178 11.0987 3.98062C11.0847 4.05094 11.0635 4.1353 11.0424 4.22674C11.1906 4.40078 11.3789 4.53613 11.5911 4.62106Z" fill="black"/>
<path d="M10.6837 4.33984C11.4504 4.79704 11.9005 5.64784 12.1468 6.49912C12.3789 7.30096 12.4708 8.17312 12.2382 8.97496C11.9428 9.98068 11.169 10.7896 10.2969 11.3663C9.78351 11.704 9.21375 11.9924 8.80575 12.4496C8.81991 12.2315 8.61591 12.0486 8.42595 11.9501C8.11647 11.7884 7.75779 11.704 7.48347 11.486C7.35077 11.3804 7.24155 11.2483 7.16277 11.0981C7.08399 10.9479 7.03737 10.783 7.02591 10.6138C6.99783 10.1218 7.27215 9.65716 7.60275 9.2914C7.93335 8.92564 8.33475 8.62324 8.65071 8.24344C9.60063 7.10404 9.67095 5.4226 10.6837 4.33984V4.33984Z" fill="#FFD340"/>
<path d="M12.1467 6.50643C11.9216 5.72571 11.5278 4.94499 10.8737 4.47363C11.1713 4.93399 11.339 5.46624 11.3589 6.01407C11.3681 6.22572 11.3563 6.43775 11.3238 6.64707C11.4569 6.79448 11.5682 6.96015 11.6544 7.13907C11.9182 7.70244 12.0527 8.31763 12.0482 8.93967C12.0484 9.1639 12.0272 9.38764 11.9849 9.60783C12.0909 9.40855 12.1758 9.19873 12.2382 8.98179C12.4703 8.17335 12.3788 7.30815 12.1467 6.50643V6.50643Z" fill="#FDB849"/>
<path d="M9.45289 11.9644L9.40369 11.9012C9.61465 11.7394 9.83977 11.5917 10.0578 11.444C10.5526 11.1331 11.0126 10.77 11.4299 10.3608C11.7036 10.0915 11.9003 9.75396 11.9996 9.38309C12.0483 9.12547 12.0504 8.86122 12.0059 8.60285C11.9218 7.97897 11.7239 7.37581 11.4221 6.82337L11.4925 6.78125C11.8008 7.34149 12.0012 7.95463 12.0833 8.58881C12.1276 8.85684 12.1252 9.13052 12.0762 9.39773C11.977 9.78358 11.7725 10.1342 11.4854 10.4105C11.0656 10.8261 10.6009 11.1938 10.0999 11.5068C9.88897 11.6549 9.66385 11.8026 9.45289 11.9644V11.9644Z" fill="black"/>
<path d="M10.4234 10.0863C9.78109 10.2998 9.08622 10.2948 8.44702 10.0722C8.51038 9.94559 8.59474 9.83315 8.6581 9.70643C9.25298 9.81332 9.8635 9.79657 10.4516 9.65723C10.4635 9.80087 10.454 9.94549 10.4234 10.0863Z" fill="#FDB849"/>
<path d="M10.4165 8.23633L10.9445 8.46853C11.0008 8.48953 11.0645 8.53177 11.057 8.59513C11.05 8.63725 11.0077 8.67241 11.0077 8.71513C11.0077 8.75785 11.0359 8.79253 11.0288 8.82769C11.0219 8.89093 10.9374 8.91913 10.9088 8.98237C10.8877 9.03169 10.9158 9.10237 10.8737 9.13717C10.8518 9.15374 10.8283 9.1679 10.8034 9.17941C10.7611 9.20041 10.74 9.24265 10.7048 9.27085C10.6585 9.30091 10.6066 9.32137 10.5523 9.33101C10.4979 9.34066 10.4421 9.3393 10.3883 9.32701C10.2953 9.31339 10.2035 9.29224 10.114 9.26377C10.2431 9.18062 10.3993 9.15052 10.55 9.17977C10.4587 9.15865 10.3673 9.13045 10.2758 9.11641C10.2442 9.11127 10.2135 9.10182 10.1844 9.08833C10.1578 9.07102 10.134 9.04964 10.114 9.02497C10.0676 8.9572 10.0411 8.87787 10.0374 8.79587C10.0337 8.71388 10.053 8.63248 10.093 8.56081C10.1564 8.41594 10.2718 8.30015 10.4165 8.23633V8.23633Z" fill="#F2BF8C"/>
<path d="M10.8595 4.7129C10.7329 4.49486 10.4376 4.41758 10.1913 4.48082C9.95145 4.55966 9.73259 4.69195 9.55126 4.8677C8.74139 5.60623 8.05934 6.47371 7.53274 7.43498C7.44462 7.55699 7.40455 7.7072 7.42018 7.8569C7.45533 7.97053 7.52397 8.07091 7.6171 8.1449C8.26128 8.74041 9.07999 9.1128 9.95218 9.20702C10.129 9.11581 10.272 8.97039 10.3602 8.79206C10.4657 8.60445 10.5371 8.39965 10.5711 8.18714C10.2018 7.88359 9.77293 7.66077 9.31222 7.53302C9.63622 7.24502 9.95926 6.93518 10.2617 6.63302C10.529 6.36566 10.7963 6.0773 10.9369 5.7257C11.0078 5.56341 11.0378 5.38623 11.0243 5.20966C11.0108 5.03309 10.9542 4.86252 10.8595 4.7129V4.7129Z" fill="#FDB849"/>
<path d="M12.9978 20.5239L13.0189 20.5662C13.0611 20.6365 13.1736 20.6716 13.237 20.7068C13.3407 20.7593 13.4492 20.8017 13.561 20.8334C13.8026 20.9131 14.0493 20.9766 14.2995 21.0234C14.5525 21.0677 14.8095 21.0842 15.0661 21.0726C15.2716 21.0689 15.4763 21.0477 15.6781 21.0092C15.6923 20.9671 15.7133 20.9252 15.7275 20.8826C15.7561 20.8753 15.7842 20.866 15.8115 20.8545C15.7341 20.3973 15.2559 20.3973 15.0237 20.3341C14.7409 20.1911 14.4683 20.0289 14.2077 19.8487C14.2288 19.7362 14.2499 19.6166 14.2639 19.504C14.271 19.4548 14.271 19.3916 14.2428 19.3705C14.2362 19.3646 14.2284 19.3602 14.2198 19.3578C14.2113 19.3553 14.2024 19.3548 14.1936 19.3563C14.148 19.353 14.1023 19.3602 14.0599 19.3774C13.9967 19.4056 13.9333 19.4268 13.8701 19.4548C13.8042 19.4761 13.744 19.5122 13.6942 19.5603C13.6661 19.5885 13.645 19.623 13.6328 19.6609C13.6206 19.6988 13.6175 19.739 13.6239 19.7784C13.5114 19.6584 13.3989 19.5322 13.2863 19.4126C13.2578 19.4829 13.2366 19.556 13.2229 19.6306C13.216 19.708 13.2511 19.7995 13.3069 19.8066C13.2108 19.9731 13.0725 20.1113 12.906 20.2075C12.892 20.2144 12.8778 20.2215 12.8778 20.2426C12.8767 20.2548 12.8792 20.267 12.8849 20.2778C12.9035 20.3673 12.9421 20.4514 12.9978 20.5239V20.5239Z" fill="#643CFF"/>
<path d="M14.4115 20.9812C14.5837 21.0103 14.7575 21.0291 14.932 21.0375C15.115 21.0434 15.2981 21.0387 15.4806 21.0234C15.5509 21.0164 15.6143 21.0093 15.6846 21.0023C15.6979 20.9611 15.7144 20.921 15.7338 20.8823H15.7409C15.2556 20.9105 14.7773 20.9105 14.292 20.9246C14.2427 20.9257 14.1933 20.9234 14.1443 20.9176C14.2302 20.9503 14.3201 20.9717 14.4115 20.9812V20.9812Z" fill="white"/>
<path d="M14.4467 20.9534C14.2651 20.9325 14.0845 20.9045 13.9051 20.8694C13.7457 20.8393 13.5883 20.7993 13.4339 20.7494C13.2767 20.6918 13.1277 20.6137 12.9907 20.5173V20.5242C12.9214 20.5989 12.8377 20.6588 12.7446 20.7002C12.7538 20.871 12.7894 21.0395 12.8501 21.1995C13.0184 21.2578 13.1932 21.2956 13.3705 21.312C13.5415 21.3142 13.7089 21.2625 13.8489 21.1643C13.8886 21.1418 13.9334 21.13 13.979 21.13C14.0246 21.13 14.0695 21.1418 14.1091 21.1643C14.1909 21.2052 14.2667 21.2573 14.3341 21.319C14.6928 21.607 15.1923 21.3472 15.5932 21.1784C15.6295 21.1266 15.6578 21.0697 15.6772 21.0095C15.6186 21.0131 15.5599 21.0131 15.5014 21.0095C15.1571 21.0026 14.7984 20.9955 14.4467 20.9534V20.9534ZM14.1232 20.3414L14.0809 20.271C14.2355 20.1869 14.3626 20.0599 14.4467 19.9053L14.517 19.9475C14.4233 20.1116 14.2873 20.2476 14.1232 20.3414V20.3414ZM14.4959 20.4539L14.4327 20.3976C14.5312 20.2821 14.6184 20.1573 14.6928 20.0249L14.7633 20.067C14.6889 20.2056 14.5992 20.3353 14.4959 20.4539V20.4539ZM13.8066 20.1796L13.7715 20.1022C13.9378 20.0356 14.0869 19.9323 14.2075 19.7998L14.2709 19.849C14.1469 19.997 13.9871 20.1108 13.8066 20.1796V20.1796Z" fill="black"/>
<path d="M8.34155 21.1006C8.33447 21.1006 8.33447 21.1077 8.34155 21.1006C8.34155 21.1217 8.35559 21.1288 8.36267 21.1499C8.41729 21.2269 8.48965 21.2897 8.57363 21.3328C8.67119 21.4008 8.77479 21.4596 8.88311 21.5086C9.11195 21.6195 9.34956 21.7112 9.59351 21.7829C9.83369 21.8536 10.0818 21.8939 10.332 21.9029C10.5292 21.9135 10.7269 21.9065 10.9229 21.8819C10.9424 21.8362 10.9588 21.7891 10.9721 21.7412C10.9932 21.7342 11.0284 21.7271 11.0561 21.72C10.9927 21.192 10.5281 21.1504 10.3105 21.059C10.198 21.0098 9.74783 20.6229 9.52979 20.44C9.55825 20.31 9.57936 20.1785 9.59303 20.0462C9.605 19.9914 9.59754 19.9342 9.57191 19.8843C9.56667 19.8781 9.56024 19.8731 9.553 19.8695C9.54576 19.8659 9.53787 19.8638 9.52979 19.8633C9.48722 19.8535 9.44259 19.8585 9.40319 19.8773C9.33983 19.8984 9.27647 19.9265 9.21323 19.9476C9.14819 19.9663 9.08969 20.0028 9.04439 20.0531C9.01504 20.0863 8.99349 20.1257 8.98132 20.1683C8.96915 20.2109 8.96668 20.2557 8.97407 20.2994C8.86859 20.1516 8.76311 19.9968 8.65763 19.8491C8.62176 19.9267 8.6003 20.0101 8.59427 20.0954C8.58719 20.1868 8.61539 20.2923 8.67167 20.3063C8.58015 20.4836 8.4414 20.6321 8.27075 20.7354C8.25671 20.7424 8.24255 20.7495 8.24255 20.7706V20.8058C8.25524 20.9097 8.28892 21.01 8.34155 21.1006Z" fill="#9778FF"/>
<path d="M9.68497 21.8113C9.85258 21.8668 10.0243 21.9091 10.1985 21.9379C10.3694 21.9485 10.5409 21.9485 10.7119 21.9379C10.7842 21.9294 10.8538 21.9054 10.9159 21.8676C10.9301 21.8255 10.9511 21.7761 10.9653 21.734C10.9653 21.734 10.6206 21.8817 9.36157 21.6426C9.46488 21.707 9.573 21.7634 9.68497 21.8113V21.8113Z" fill="white"/>
<path d="M13.3871 2.70429C13.4202 2.69903 13.4541 2.70644 13.4819 2.72506C13.5065 2.75053 13.5204 2.78453 13.5205 2.81995C13.5187 2.93748 13.4849 3.05229 13.4226 3.15197C13.3396 3.30317 13.227 3.45141 13.0669 3.51668C13.044 3.5283 13.0177 3.53144 12.9928 3.52554C12.9778 3.51821 12.9649 3.50737 12.9551 3.49394C12.9453 3.48051 12.9389 3.46491 12.9365 3.44846C12.895 3.27649 12.9988 3.09267 13.0699 2.94147C13.0976 2.8778 13.1415 2.82245 13.1971 2.78087C13.2527 2.73928 13.3182 2.71289 13.3871 2.70429V2.70429Z" fill="#F2BF8C"/>
<path d="M13.4374 2.81738C13.3522 2.90567 13.2757 3.00198 13.2091 3.10496C13.2565 3.08719 13.301 3.06943 13.3484 3.05161C13.2823 3.21168 13.1615 3.34304 13.0075 3.42222C13.0164 3.41927 13.046 3.2473 13.055 3.22358C13.0714 3.17723 13.0923 3.13255 13.1172 3.09015C13.2083 2.98235 13.3165 2.8902 13.4374 2.81738V2.81738Z" fill="#E28A42"/>
<path d="M11.3442 1.30236C11.6615 1.32012 11.9224 1.54544 12.2069 1.68183C12.3416 1.74405 12.4815 1.79463 12.6249 1.83302C12.8153 1.89485 13.0124 1.93367 13.212 1.94864C13.413 1.96213 13.6136 1.9179 13.7902 1.82116C13.888 1.76186 13.9799 1.66997 13.9977 1.55731C14.0155 1.42688 13.9266 1.2964 13.805 1.2401C13.6805 1.19018 13.5418 1.18911 13.4166 1.2371C13.4981 1.16598 13.5673 1.08182 13.6212 0.988053C13.6436 0.954295 13.6578 0.915764 13.6627 0.875534C13.6686 0.786456 13.6004 0.709521 13.5233 0.662075C13.3129 0.528506 13.046 0.546321 12.8029 0.584859C12.5598 0.626538 12.3078 0.685658 12.0677 0.632305C11.9164 0.59672 11.7741 0.516644 11.617 0.501829C11.4766 0.490263 11.3373 0.533874 11.2286 0.623397C11.1202 0.714328 11.0521 0.844275 11.0389 0.985099C10.9177 1.00287 10.803 1.05108 10.7055 1.12522C10.608 1.19937 10.5309 1.29703 10.4815 1.40906C10.4479 1.49983 10.426 1.59449 10.4162 1.69078C10.4044 1.85466 10.4044 2.01918 10.4162 2.18305C10.434 2.56257 10.4518 2.94504 10.5526 3.3097C10.5793 3.40454 10.6149 3.50539 10.7038 3.54983C10.7929 3.59728 10.9084 3.56169 10.9825 3.49053C11.0501 3.41431 11.0979 3.3227 11.1219 3.22371C11.2849 2.66928 11.2197 2.07335 11.2849 1.49819C11.29 1.42934 11.3103 1.36247 11.3442 1.30236V1.30236Z" fill="black"/>
<path d="M13.2476 1.97238C13.2728 2.34183 13.2549 2.71295 13.1942 3.07826C13.138 3.40437 13.0579 3.82538 12.8236 4.07147C12.6655 4.22765 12.4556 4.32047 12.2337 4.33238C11.8889 4.36172 11.5435 4.28517 11.2434 4.11296C10.8696 3.8936 10.769 3.57634 10.7097 3.16424C10.6659 2.89369 10.6441 2.62002 10.6446 2.34594C10.6506 1.97238 10.7128 1.47429 10.9678 1.18081C11.0851 1.04738 11.2298 0.940726 11.3919 0.868087C11.5541 0.795449 11.7299 0.758518 11.9076 0.759798C12.3553 0.765705 12.7377 0.999932 13.0016 1.34115C13.1447 1.52245 13.2304 1.74233 13.2477 1.97261" fill="#F2BF8C"/>
<path d="M13.0224 1.32882C12.7585 0.987836 12.376 0.741794 11.9284 0.73584C11.7441 0.738269 11.5624 0.778769 11.3946 0.854795C11.2268 0.930821 11.0765 1.04073 10.9532 1.17762C10.6982 1.47111 10.6152 1.98701 10.6093 2.36057C10.6063 2.54735 10.6538 2.71927 10.6745 2.90605C10.6923 2.91496 10.7101 2.92682 10.7279 2.93573C10.7427 2.94164 10.7783 2.96241 10.796 2.95055C10.8109 2.94164 10.8139 2.90605 10.8139 2.89429C10.8188 2.86092 10.8207 2.82719 10.8198 2.79349C10.8203 2.72604 10.8252 2.65869 10.8346 2.59189C10.8716 2.30773 10.9514 2.03082 11.0713 1.77055C11.2107 1.47706 11.4568 1.29028 11.774 1.45643C12.0616 1.60763 12.3017 1.87149 12.5508 2.07904C12.7672 2.25987 13.037 2.25691 12.9896 2.08199C12.9555 1.97544 12.9297 1.86641 12.9125 1.75587C13.0396 1.84704 13.1894 1.90142 13.3454 1.91302C13.55 1.91893 13.8168 1.8359 13.9324 1.65517C13.9581 1.61752 13.9728 1.57346 13.9749 1.52792C13.977 1.48239 13.9664 1.43716 13.9442 1.39731" fill="black"/>
<path d="M10.5704 2.44693C10.4933 2.39648 10.3955 2.35785 10.3155 2.39948C10.2782 2.42125 10.2491 2.45454 10.2324 2.49433C10.1762 2.6159 10.1996 2.76119 10.2532 2.88571C10.3469 3.10668 10.519 3.28516 10.7365 3.38675C10.7927 3.41342 10.861 3.43124 10.9114 3.39861C10.9403 3.37669 10.9603 3.34505 10.9677 3.30953C10.9939 3.20661 10.9887 3.09819 10.9528 2.99823C10.8788 2.76414 10.7809 2.58326 10.5704 2.44693V2.44693Z" fill="#F2BF8C"/>
<path d="M10.8106 3.19066C10.7778 2.80824 10.5912 2.67495 10.4103 2.53547C10.5141 2.67481 10.6119 2.80524 10.6653 2.97148C10.612 2.94481 10.5023 2.90922 10.4371 2.92699C10.5794 3.00111 10.6208 3.0426 10.8106 3.19085V3.19066ZM12.3137 2.40771C12.307 2.55391 12.3292 2.69999 12.379 2.83763C12.4234 2.94734 12.5153 3.05109 12.6398 3.06295C12.5176 3.13897 12.3816 3.19031 12.2396 3.2141C12.1715 2.96815 12.2219 2.64499 12.3137 2.40771Z" fill="#E28A42"/>
<path d="M12.4324 2.65697C12.5332 2.54136 12.714 2.39607 12.8652 2.41389C13.0165 2.4317 13.1559 2.51468 13.2091 2.74296C13.2091 2.74296 13.0966 2.82894 12.8385 2.80822C12.6914 2.79776 12.5505 2.74526 12.4324 2.65697V2.65697ZM11.2701 2.55317C11.371 2.43756 11.5518 2.29227 11.703 2.31009C11.8542 2.3279 11.9937 2.41088 12.0469 2.63916C12.0469 2.63916 11.9344 2.72514 11.6763 2.70437C11.5294 2.69309 11.3887 2.6407 11.2701 2.55317V2.55317Z" fill="white"/>
<path d="M13.0135 2.75775C13.0172 2.66821 13.0394 2.58042 13.0787 2.49989C13.0182 2.44929 12.9438 2.41823 12.8652 2.41081C12.714 2.393 12.5332 2.54124 12.4324 2.6539C12.5497 2.74361 12.6911 2.79625 12.8385 2.8051C12.8958 2.8103 12.9534 2.80931 13.0105 2.80214C13.013 2.78748 13.014 2.77261 13.0135 2.75775V2.75775ZM11.8987 2.38118C11.8421 2.34033 11.7755 2.31574 11.706 2.31006C11.5548 2.29224 11.3739 2.44049 11.2731 2.55315C11.3904 2.64286 11.5319 2.6955 11.6793 2.70435C11.7375 2.70948 11.7962 2.70849 11.8542 2.70139C11.8431 2.59263 11.8584 2.4828 11.8987 2.38118V2.38118Z" fill="black"/>
<path d="M11.5222 3.38916C11.5222 3.62043 11.8572 3.82203 12.3197 3.6916" stroke="black" stroke-width="0.30276" stroke-linejoin="round"/>
<path d="M12.2041 1.88672C12.1833 1.99643 12.1744 2.0765 12.0795 2.10318C11.9402 2.14172 11.6942 2.03797 11.5518 2.02015C11.4183 2.00524 11.285 2.0615 11.1604 2.118C11.2375 2.0172 11.2908 1.88358 11.4154 1.85414C11.4591 1.84432 11.504 1.84033 11.5488 1.84228C11.7475 1.84228 12.0084 1.87191 12.2041 1.88672V1.88672ZM13.2892 2.28105C13.2735 2.24911 13.2513 2.22082 13.224 2.19802C13.1706 2.15358 13.0935 2.15358 13.0283 2.15358C12.9482 2.15358 12.8682 2.15358 12.7881 2.15653C12.7683 2.15936 12.7482 2.15763 12.7292 2.15146C12.7102 2.14529 12.6928 2.13485 12.6785 2.12095C12.6708 2.10586 12.6648 2.08994 12.6607 2.0735C12.6517 2.02906 12.6429 1.98757 12.634 1.94308C12.8004 1.93314 12.9674 1.94109 13.1321 1.9668C13.1638 1.96918 13.1939 1.98165 13.218 2.00238C13.2411 2.02525 13.2575 2.05393 13.2655 2.08536C13.276 2.12201 13.2819 2.1598 13.2833 2.19788C13.2886 2.22527 13.2906 2.25319 13.2892 2.28105V2.28105Z" fill="black"/>
</svg>
