<svg width="556" height="711" viewBox="0 0 556 711" fill="none" xmlns="http://www.w3.org/2000/svg">
<path d="M506.689 395.965C513.735 383.214 512.727 363.45 503.167 353.885C498.864 349.984 493.835 347.567 488.573 346.873C483.106 345.872 477.533 346.378 472.235 348.359C466.937 350.34 462.039 353.747 457.877 358.348C453.786 363.075 450.887 369.227 449.545 376.032C448.202 382.838 448.476 389.994 450.331 396.604C459.222 424.656 495.114 416.803 506.689 395.965V395.965Z" fill="#FFD340"/>
<path d="M196.566 710.5C158.828 699.238 121.931 687.759 83.6888 679.047C142.728 642.282 201.431 605.082 260.301 567.69C268.185 574.067 276.403 577.04 285.294 581.079C317.664 565.779 346.849 548.778 378.046 530.076C394.483 550.688 407.234 572.135 423.831 592.765C434.399 585.967 442.783 580.017 453.351 573.429C479.852 600.622 506.687 631.658 531.846 660.773C505.011 672.249 478.676 684.786 451.84 696.262C430.267 685.553 408.058 677.026 385.423 670.758C321.187 688.383 268.185 698.172 196.566 710.5Z" fill="#14D29B"/>
<path d="M318.503 602.542C308.104 607.43 289.487 627.832 287.81 627.832C274.558 627.832 218.036 628.042 212.668 626.766C202.452 633.354 160.842 651.631 150.944 656.113C156.31 658.027 185.16 664.401 193.378 669.713C195.725 671.203 186.668 686.714 186.668 686.928C192.202 686.076 264.156 666.526 282.104 662.273C284.284 661.849 296.191 671.624 301.562 673.324C310.788 666.736 362.949 635.707 369.994 632.734C371.505 632.096 390.792 643.357 400.017 646.12C414.273 639.108 427.523 628.695 441.613 620.62C430.71 615.095 420.151 609.145 409.578 602.557L318.503 602.542Z" fill="#008C6E"/>
<path d="M295.19 511.149C270.701 506.047 264.497 502.447 253.595 490.119C242.692 477.792 230.448 463.557 215.856 465.044C211.161 465.468 206.631 467.582 201.935 467.582C191.871 467.582 183.653 458.231 175.938 450.37C159.166 433.155 138.703 419.769 117.233 421.042C95.7626 422.314 74.1292 442.72 72.6183 469.92C71.6139 487.346 51.9893 495.848 39.5787 503.712C27.0238 511.255 13.7868 516.821 0.163635 520.285C19.4505 520.075 214.849 512.635 295.19 511.149V511.149Z" fill="#9778FF"/>
<path d="M242.022 502.445C233.3 497.344 225.751 490.118 217.029 484.806C211.916 481.557 206.309 479.745 200.592 479.494C194.924 479.453 189.262 479.95 183.652 480.981C178.995 481.935 174.263 482.149 169.565 481.619C165.745 480.925 162.019 479.566 158.493 477.58C152.155 473.353 146.147 468.375 140.548 462.714C134.791 456.802 128.099 452.526 120.924 450.177C111.778 448.104 102.349 450.134 94.2569 455.916C86.3733 461.442 75.3019 475.252 70.6061 477.591C65.4067 490.129 49.8083 497.144 39.4151 503.732C26.8605 511.276 13.6234 516.842 0 520.306C17.1093 520.095 172.086 514.142 263.326 511.604C255.96 509.647 248.807 506.572 242.022 502.445V502.445Z" fill="#643CFF"/>
<path d="M556 430.612C542.46 427.148 529.79 419.557 519.086 408.495C509.191 398.705 496.442 389.369 485.033 395.533C480.337 398.071 476.142 402.969 470.943 402.755C461.717 402.121 459.371 386.606 455.179 376.403C447.295 357.492 426.832 352.39 410.899 359.402C394.966 366.415 382.887 382.357 371.149 397.657C370.98 388.307 363.6 381.295 356.22 380.867C348.84 380.439 341.964 385.12 336.092 390.431C325.358 399.992 315.967 411.896 305.233 421.671C294.499 431.446 287.116 433.998 268.668 436.971C371.67 437.2 456.707 437.2 556 430.612Z" fill="#9778FF"/>
<path d="M513.733 410.853C507.54 406.122 500.291 404.105 493.104 405.113C486.396 406.176 480.021 409.791 473.313 411.063C468.841 412.348 464.167 411.904 459.895 409.791C455.694 406.84 452.257 402.411 450 397.039C447.004 389.998 443.28 383.495 438.929 377.699C434.357 372.009 429.018 367.403 423.164 364.099C419.213 361.836 415.037 360.262 410.751 359.422C394.818 366.438 382.742 382.376 371.001 397.677C370.832 388.326 363.452 381.314 356.072 380.886C348.692 380.458 341.816 385.139 335.947 390.451C325.213 400.012 315.819 411.915 305.085 421.69C294.351 431.465 286.971 434.018 268.52 436.991C367.647 437.205 450.166 437.205 544.764 431.465C533.861 426.792 524.132 418.079 513.733 410.853V410.853Z" fill="#643CFF"/>
<path d="M409.409 72.1089L403.54 132.039H421.485L427.188 83.7946L409.409 72.1089V72.1089Z" fill="black"/>
<path d="M464.926 62.7583C449.496 71.6812 431.214 62.7583 414.608 67.2216C412.935 67.4304 411.382 68.4142 410.247 69.9844C408.066 73.6101 410.919 78.9073 413.938 81.2459C416.957 83.5845 420.806 85.4953 421.988 89.9477C423.33 95.0491 419.807 100.361 415.784 101.851C411.652 102.836 407.394 102.544 403.371 100.999C383.912 95.6872 362.279 93.7728 345.338 107.163C358.252 108.863 363.955 123.95 371.167 137.554C378.378 151.157 386.599 166.24 399.178 169.641C400.69 170.29 402.322 170.332 403.853 169.762C405.384 169.191 406.738 168.036 407.732 166.454C408.57 164.54 411.758 146.266 412.093 146.266H412.261C426.014 148.601 438.928 161.353 452.681 158.38C460.738 127.53 464.871 95.2531 464.926 62.7583V62.7583Z" fill="#14D29B"/>
<path d="M412.093 146.061H412.262C413.1 146.275 418.634 147.976 419.304 148.186C420.815 136.71 422.492 122.686 424.503 111.421C427.187 95.9064 428.195 81.4579 431.717 66.1572C425.946 65.6389 420.147 65.9956 414.442 67.2196C412.769 67.4277 411.216 68.4117 410.081 69.9824C407.901 73.6081 410.751 78.9053 413.77 81.2439C416.789 83.5825 420.637 85.4933 421.822 89.9457C422.209 91.4662 422.209 93.1024 421.822 94.6229C420.815 99.7207 418.465 107.799 417.461 112.897C415.95 120.347 411.918 145.847 412.093 146.061V146.061Z" fill="#008C6E"/>
<path d="M437.586 251.471C438.845 251.891 440.142 252.105 441.444 252.109C442.108 252.075 442.757 251.846 443.339 251.44C443.922 251.034 444.422 250.463 444.8 249.77C445.639 248.283 448.658 249.984 449.327 248.284C449.831 246.797 447.65 244.034 448.32 243.82C449.327 243.396 450.323 242.758 451.182 242.334C451.348 242.12 451.685 242.12 451.851 241.906C452.189 241.482 452.02 240.843 451.851 240.419C451.682 239.995 451.348 239.571 451.182 239.143C450.678 237.446 452.189 234.256 452.189 232.555C452.02 230.43 449.84 230.22 448.329 229.158C447.256 228.255 446.064 227.606 444.809 227.243C443.9 227.07 442.972 227.216 442.125 227.668C437.429 228.944 432.899 231.069 428.203 232.345C425.146 232.872 422.191 234.101 419.481 235.971C418.738 236.707 418.182 237.705 417.884 238.839C417.586 239.973 417.558 241.194 417.804 242.348C421.822 249.331 431.377 249.756 437.586 251.471V251.471Z" fill="#E28A42"/>
<path d="M391.281 610.024L465.722 38.895L471.513 40.106L397.073 611.235L391.281 610.024Z" fill="black"/>
<path d="M429.872 242.101C432.473 240.389 434.801 238.083 436.74 235.3C438.348 232.556 440.566 230.484 443.11 229.35C445.113 228.501 449.82 226.587 449.148 222.762C445.29 223.614 439.59 225.738 436.234 225.949C433.086 225.913 429.945 225.558 426.842 224.886C423.702 224.251 420.483 224.844 417.616 226.587C414.262 229.125 413.089 230.84 414.094 235.727C415.281 241.677 424.673 245.078 429.872 242.101Z" fill="#F2BF8C"/>
<path d="M343.83 331.372C329.844 344.764 313.595 353.857 296.363 357.934C276.572 362.611 255.271 360.273 237.987 347.097C229.768 340.933 222.892 332.434 215.009 325.418C207.125 318.403 197.899 313.091 188.339 313.943C209.158 305.199 230.466 298.451 252.083 293.755C279.757 288.229 309.111 286.529 334.436 301.619C339.469 304.592 344.5 308.631 346.68 314.795C349.03 321.383 348.357 327.119 343.83 331.372V331.372Z" fill="black"/>
<path d="M285.795 131.837C300.723 130.137 314.982 138.85 328.397 147.562C335.611 152.239 342.823 156.703 349.53 162.014C362.121 171.804 373.347 184.131 385.425 194.74C397.504 205.349 410.919 214.718 425.51 217.267C425.094 225.672 423.245 233.863 420.088 241.274C416.932 248.686 412.544 255.141 407.228 260.196C398.506 256.57 389.618 252.121 380.901 248.506C374.36 245.743 367.652 243.195 361.277 239.805C325.213 221.081 296.531 179.218 285.795 131.837V131.837Z" fill="#FDB849"/>
<path d="M281.099 124.583C310.453 144.561 328.232 185.79 332.089 227.652C335.947 269.515 327.393 312.023 313.807 350.489C310.619 332.211 312.799 312.661 313.638 293.96C314.829 265.435 311.286 236.91 303.239 210.227C298.878 195.775 293.175 181.946 288.817 167.512C284.459 153.078 280.261 140.113 281.099 124.583V124.583Z" fill="#FFD340"/>
<path d="M439.433 234.674C438.37 235.492 437.36 236.416 436.414 237.437C436.079 237.861 435.241 238.924 435.407 239.562C435.741 240.624 437.587 240.41 438.268 240.41C441.55 240.306 444.79 239.446 447.829 237.872C449.441 237.12 450.881 235.875 452.021 234.247C452.233 233.925 452.374 233.537 452.427 233.124C452.481 232.71 452.446 232.285 452.326 231.895C452.206 231.504 452.006 231.161 451.746 230.902C451.486 230.643 451.176 230.477 450.848 230.421C450.13 230.211 449.384 230.211 448.667 230.421C445.4 231.064 442.263 232.508 439.433 234.674V234.674Z" fill="#F2BF8C"/>
<path d="M444.297 239.14C441.626 239.082 438.982 239.81 436.571 241.268C435.898 241.693 435.229 242.541 435.564 243.393C435.642 243.588 435.762 243.752 435.911 243.865C436.059 243.978 436.229 244.035 436.402 244.031C438.898 245.024 441.523 245.385 444.128 245.093C445.99 245.032 447.843 244.747 449.663 244.241C450.67 243.817 453.52 242.117 452.012 240.416C450.913 239.742 449.711 239.379 448.489 239.354C447.096 239.18 445.697 239.109 444.297 239.14V239.14Z" fill="#F2BF8C"/>
<path d="M436.749 245.085C436.079 245.295 435.407 245.934 435.407 246.786C435.443 247.1 435.538 247.399 435.684 247.658C435.83 247.916 436.022 248.127 436.245 248.272C438.287 249.743 440.608 250.477 442.956 250.397C444.632 250.611 452.516 249.973 448.321 245.934C444.658 243.96 440.567 243.66 436.749 245.085V245.085Z" fill="#F2BF8C"/>
<path d="M443.793 249.119C441.917 248.624 439.986 248.553 438.09 248.909C437.587 248.909 436.917 249.333 436.917 249.971C436.917 250.182 437.083 250.395 437.252 250.609C438.227 251.457 439.304 252.102 440.44 252.52C441.978 253.141 443.547 253.638 445.135 254.007C446.309 254.434 448.154 254.221 447.651 252.096C447.316 250.609 444.967 249.547 443.793 249.119V249.119Z" fill="#F2BF8C"/>
<path d="M333.848 274.869C326.738 243.655 326.46 239.387 314.475 216.249C316.695 207.376 317.967 197.961 318.237 188.403C318.249 184.068 317.681 179.779 316.572 175.829C315.48 172.761 314.01 170.087 312.251 167.97C306.397 160.109 299.289 154.944 293.156 147.756C287.023 140.569 281.727 128.895 281.865 116.769C277.685 114.087 272.805 104.865 268.484 106.424C267.231 118.098 262.777 138.312 256.499 144.599C250.504 150.66 242.421 153.795 239.494 164.139C236.707 174.246 240.05 185.698 243.815 194.905C248.691 206.879 254.143 218.217 260.121 228.816C268.484 243.409 278.381 258.907 278.241 278.669C290.647 293.041 298.87 294.163 303.329 317.749C315.661 308.016 326.186 293.228 333.848 274.869V274.869Z" fill="white"/>
<path d="M312.13 528.365C315.987 549.83 321.187 571.512 319.676 593.183C321.285 595.037 323.299 596.232 325.454 596.611C327.609 596.99 329.804 596.536 331.751 595.307L333.262 553.017C333.597 544.728 333.766 536.44 334.101 528.362L312.13 528.365Z" fill="#E28A42"/>
<path d="M318.672 565.766C319.926 574.813 320.264 584.025 319.676 593.18C321.286 595.035 323.3 596.23 325.455 596.609C327.61 596.988 329.805 596.534 331.752 595.305L332.928 559.178C328.499 562.364 323.68 564.591 318.672 565.766V565.766Z" fill="black"/>
<path d="M232.785 528.372H206.458C205.62 557.486 208.639 587.449 211.658 616.35C215.79 617.957 220.23 617.733 224.249 615.716C222.789 594.594 223.862 573.313 227.434 552.599C228.704 544.355 230.493 536.253 232.785 528.372V528.372Z" fill="#F2BF8C"/>
<path d="M224.745 572.15C219.722 576.221 213.692 577.81 207.805 576.613C208.823 589.899 210.11 603.149 211.665 616.351C215.797 617.958 220.237 617.734 224.256 615.717C223.243 601.211 223.407 586.613 224.745 572.15V572.15Z" fill="black"/>
<path d="M309.446 538.563C318.499 538.644 327.522 537.216 336.281 534.314C338.061 503.971 341.366 473.803 346.177 443.993C348.18 431.031 350.707 418.279 352.215 405.317C358.59 355.162 354.06 303.311 341.65 254.849C330.469 269.041 317.111 280.179 302.401 287.575C302.03 322.332 304.277 357.055 309.111 391.271C311.392 403.685 312.684 416.358 312.968 429.098C312.634 448.438 307.096 466.929 305.42 486.055C303.911 504.137 304.077 521.562 309.446 538.563Z" fill="black"/>
<path d="M231.285 542.403C222.563 546.028 213.844 541.765 205.122 538.153C199.926 519.046 199.749 498.321 204.618 479.076C209.818 458.884 220.551 441.459 225.416 421.064C227.825 408.904 229.563 396.547 230.615 384.081C236.484 335.413 253.259 290.149 269.862 245.52C273.176 247.343 276.677 248.564 280.261 249.146C299.334 249.09 318.227 244.471 335.947 235.531C340.463 245.037 343.641 255.465 345.338 266.35C334.844 281.349 322.963 294.691 309.949 306.088C302.955 359.249 285.28 409.234 258.624 451.234C248.895 466.324 245.375 485.678 240.845 503.937C237.649 516.689 233.466 529.441 231.285 542.403V542.403Z" fill="black"/>
<path d="M275.899 134.793C279.057 134.889 282.179 133.936 284.956 132.03C282.25 127.021 280.79 121.1 280.764 115.029C275.734 112.491 269.862 103.764 264.662 105.24C263.566 111.949 261.937 118.501 259.797 124.793C261.751 127.836 264.203 130.306 266.982 132.032C269.762 133.758 272.805 134.7 275.899 134.793Z" fill="#F2BF8C"/>
<path d="M276.404 125.014C278.349 125.851 280.388 126.282 282.442 126.29C281.308 122.86 280.737 119.172 280.765 115.453C275.734 112.915 269.862 104.188 264.663 105.663C264.328 107.788 263.824 110.337 263.321 113.1C266.853 118.358 271.344 122.448 276.404 125.014Z" fill="black"/>
<path d="M254.768 116.513C273.051 130.327 283.785 156.034 289.657 181.755C295.191 205.982 297.383 232.334 291.837 256.561C284.792 286.948 266.341 311.389 245.543 328.815C233.301 339.017 219.714 347.73 209.985 361.544C210.323 354.956 205.458 349.43 200.928 346.454C193.548 341.566 184.995 339.017 178.453 332.429C175.289 329.239 172.685 325.248 170.806 320.71C168.927 316.173 167.816 311.19 167.542 306.078C166.873 291.212 173.414 277.173 181.298 266.122C189.181 255.071 198.753 245.934 206.288 234.458C228.94 200.032 230.617 149.228 254.768 116.513V116.513Z" fill="#FFD340"/>
<path d="M289.655 181.978C284.287 158.389 274.895 134.8 259.297 120.558C266.395 134.467 270.393 150.549 270.869 167.102C271.088 173.496 270.807 179.903 270.031 186.227C273.204 190.681 275.859 195.687 277.914 201.093C284.204 218.115 287.413 236.702 287.306 255.497C287.31 262.272 286.804 269.032 285.795 275.685C288.323 269.664 290.348 263.324 291.836 256.77C297.37 232.343 295.189 206.202 289.655 181.978V181.978Z" fill="#FDB849"/>
<path d="M225.417 346.886L224.244 344.975C229.275 340.088 234.643 335.625 239.842 331.161C251.642 321.769 262.611 310.797 272.561 298.435C279.087 290.298 283.778 280.099 286.148 268.893C287.308 261.109 287.359 253.125 286.297 245.318C284.292 226.468 279.573 208.244 272.375 191.552L274.055 190.28C281.407 207.207 286.186 225.733 288.143 244.894C289.2 252.993 289.143 261.262 287.974 269.335C285.608 280.994 280.731 291.589 273.886 299.937C263.874 312.492 252.793 323.601 240.847 333.061C235.816 337.535 230.448 341.999 225.417 346.886V346.886Z" fill="black"/>
<path d="M248.561 290.147C233.243 296.595 216.673 296.444 201.431 289.719C202.942 285.894 204.953 282.496 206.464 278.668C220.65 281.898 235.208 281.391 249.233 277.181C249.517 281.521 249.29 285.891 248.561 290.147Z" fill="#FDB849"/>
<path d="M248.395 234.241L260.986 241.257C262.328 241.891 263.847 243.167 263.67 245.082C263.501 246.354 262.494 247.417 262.494 248.707C262.494 249.998 263.166 251.046 262.997 252.108C262.831 254.019 260.817 254.871 260.136 256.782C259.632 258.272 260.302 260.408 259.297 261.459C258.776 261.96 258.214 262.388 257.62 262.735C256.613 263.37 256.11 264.646 255.271 265.498C254.166 266.406 252.929 267.025 251.632 267.316C250.336 267.607 249.006 267.566 247.722 267.195C245.505 266.784 243.317 266.145 241.181 265.284C244.259 262.772 247.985 261.863 251.58 262.746C249.402 262.108 247.222 261.256 245.041 260.832C244.287 260.677 243.553 260.391 242.861 259.983C242.225 259.461 241.658 258.815 241.181 258.069C240.076 256.022 239.444 253.625 239.356 251.147C239.268 248.67 239.726 246.21 240.68 244.045C242.192 239.668 244.945 236.169 248.395 234.241V234.241Z" fill="#F2BF8C"/>
<path d="M258.959 127.782C255.94 121.194 248.898 118.859 243.026 120.769C237.305 123.152 232.086 127.149 227.762 132.459C208.45 154.773 192.185 180.984 179.628 210.028C177.527 213.714 176.571 218.253 176.944 222.776C177.782 226.209 179.419 229.242 181.64 231.478C197.001 249.471 216.524 260.722 237.323 263.569C241.539 260.813 244.949 256.419 247.052 251.031C249.568 245.363 251.271 239.175 252.083 232.754C243.275 223.582 233.048 216.85 222.062 212.99C229.788 204.288 237.492 194.927 244.703 185.797C251.078 177.719 257.451 169.006 260.805 158.383C262.495 153.479 263.21 148.126 262.889 142.791C262.567 137.456 261.218 132.302 258.959 127.782V127.782Z" fill="#FDB849"/>
<path d="M309.951 605.508L310.454 606.785C311.459 608.909 314.143 609.972 315.654 611.034C318.126 612.62 320.714 613.901 323.38 614.859C329.142 617.268 335.025 619.186 340.99 620.599C347.023 621.938 353.154 622.436 359.273 622.085C364.171 621.974 369.054 621.334 373.866 620.171C374.204 618.898 374.705 617.633 375.043 616.346C375.726 616.127 376.396 615.843 377.046 615.497C375.2 601.683 363.797 601.683 358.26 599.772C351.517 595.452 345.015 590.552 338.801 585.106C339.305 581.709 339.808 578.094 340.143 574.693C340.312 573.207 340.312 571.296 339.639 570.658C339.482 570.479 339.294 570.348 339.091 570.274C338.888 570.2 338.674 570.185 338.466 570.23C337.379 570.129 336.288 570.347 335.278 570.868C333.77 571.72 332.259 572.358 330.751 573.207C329.179 573.85 327.744 574.94 326.556 576.394C325.886 577.246 325.384 578.287 325.093 579.432C324.801 580.577 324.728 581.794 324.879 582.982C322.198 579.356 319.514 575.545 316.83 571.93C316.151 574.056 315.645 576.263 315.319 578.518C315.153 580.857 315.991 583.62 317.322 583.834C315.029 588.865 311.732 593.043 307.762 595.947C307.427 596.158 307.089 596.372 307.089 597.01C307.063 597.377 307.122 597.746 307.258 598.072C307.702 600.776 308.622 603.318 309.951 605.508V605.508Z" fill="#643CFF"/>
<path d="M343.662 619.32C347.768 620.2 351.913 620.768 356.073 621.021C360.436 621.198 364.805 621.057 369.156 620.596C370.833 620.382 372.343 620.169 374.02 619.958C374.338 618.714 374.73 617.502 375.194 616.333H375.362C363.79 617.185 352.384 617.185 340.812 617.609C339.635 617.644 338.458 617.573 337.289 617.398C339.339 618.387 341.481 619.033 343.662 619.32V619.32Z" fill="white"/>
<path d="M344.501 618.473C340.171 617.844 335.863 616.997 331.587 615.935C327.784 615.028 324.031 613.817 320.349 612.31C316.599 610.569 313.046 608.211 309.782 605.297V605.508C308.129 607.764 306.132 609.572 303.912 610.823C304.132 615.986 304.981 621.075 306.428 625.91C310.442 627.671 314.609 628.812 318.838 629.311C322.916 629.375 326.906 627.814 330.245 624.847C331.191 624.168 332.26 623.811 333.348 623.811C334.436 623.811 335.505 624.168 336.451 624.847C338.402 626.083 340.207 627.656 341.817 629.521C350.37 638.223 362.28 630.373 371.84 625.272C372.707 623.709 373.382 621.989 373.843 620.17C372.447 620.278 371.047 620.278 369.651 620.17C361.441 619.96 352.888 619.746 344.501 618.473V618.473ZM336.786 599.982L335.779 597.857C339.465 595.315 342.494 591.477 344.501 586.806L346.178 588.082C343.942 593.04 340.699 597.149 336.786 599.982V599.982ZM345.674 603.383L344.166 601.683C346.517 598.192 348.594 594.42 350.37 590.421L352.05 591.694C350.275 595.879 348.137 599.8 345.674 603.383V603.383ZM329.237 595.095L328.399 592.756C332.365 590.745 335.921 587.621 338.798 583.619L340.309 585.106C337.351 589.578 333.54 593.017 329.237 595.095V595.095Z" fill="black"/>
<path d="M198.916 622.925C198.747 622.925 198.747 623.139 198.916 622.925C198.916 623.563 199.25 623.777 199.419 624.415C200.722 626.742 202.447 628.637 204.45 629.94C206.776 631.994 209.247 633.772 211.83 635.252C217.287 638.602 222.953 641.374 228.77 643.541C234.498 645.677 240.414 646.895 246.38 647.166C251.083 647.486 255.798 647.273 260.471 646.532C260.937 645.149 261.328 643.728 261.644 642.279C262.148 642.068 262.986 641.855 263.647 641.641C262.136 625.687 251.056 624.429 245.868 621.666C243.184 620.18 232.45 608.491 227.251 602.965C227.929 599.037 228.433 595.065 228.759 591.065C229.044 589.41 228.866 587.681 228.255 586.174C228.13 585.988 227.977 585.836 227.804 585.727C227.632 585.618 227.443 585.554 227.251 585.54C226.236 585.244 225.171 585.394 224.232 585.964C222.721 586.602 221.21 587.45 219.702 588.089C218.151 588.652 216.756 589.756 215.676 591.276C214.976 592.279 214.462 593.467 214.172 594.755C213.882 596.042 213.823 597.395 213.999 598.716C211.484 594.252 208.968 589.575 206.453 585.112C205.598 587.455 205.086 589.976 204.942 592.552C204.773 595.315 205.446 598.502 206.788 598.926C204.605 604.282 201.297 608.769 197.227 611.892C196.893 612.102 196.555 612.316 196.555 612.954V614.016C196.857 617.158 197.661 620.188 198.916 622.925Z" fill="#9778FF"/>
<path d="M230.951 644.408C234.948 646.084 239.042 647.363 243.196 648.233C247.273 648.552 251.363 648.552 255.44 648.233C257.164 647.977 258.823 647.252 260.305 646.108C260.643 644.836 261.143 643.345 261.481 642.073C261.481 642.073 253.263 646.536 223.239 639.31C225.703 641.258 228.281 642.962 230.951 644.408V644.408Z" fill="white"/>
<path d="M319.232 67.1031C320.022 66.9441 320.829 67.1682 321.494 67.7306C322.081 68.5002 322.41 69.5275 322.413 70.5977C322.372 74.1487 321.565 77.6179 320.08 80.6297C318.101 85.198 315.414 89.6772 311.597 91.649C311.051 92.0002 310.425 92.0951 309.829 91.9167C309.473 91.6953 309.165 91.3677 308.931 90.962C308.698 90.5563 308.545 90.0848 308.487 89.5879C307.498 84.392 309.972 78.8378 311.669 74.2694C312.33 72.3458 313.375 70.6734 314.702 69.4169C316.028 68.1603 317.589 67.3629 319.232 67.1031V67.1031Z" fill="#F2BF8C"/>
<path d="M320.432 70.52C318.4 73.1875 316.577 76.0974 314.987 79.2091C316.119 78.6722 317.18 78.1354 318.31 77.5971C316.734 82.4334 313.853 86.4024 310.181 88.7949C310.393 88.7056 311.1 83.5097 311.312 82.793C311.705 81.3926 312.203 80.0427 312.797 78.7615C314.969 75.5043 317.549 72.7202 320.432 70.52V70.52Z" fill="#E28A42"/>
<path d="M270.518 24.7428C278.083 25.2796 284.305 32.0875 291.088 36.2083C294.302 38.0882 297.637 39.6166 301.056 40.7766C305.597 42.6447 310.298 43.8174 315.058 44.2698C319.85 44.6775 324.633 43.3411 328.845 40.4182C331.178 38.6263 333.37 35.8499 333.794 32.4459C334.218 28.5051 332.097 24.5629 329.198 22.8616C326.231 21.3535 322.923 21.3212 319.937 22.7709C321.881 20.6223 323.529 18.0795 324.815 15.2463C325.35 14.2263 325.689 13.0621 325.805 11.8465C325.946 9.15511 324.321 6.83056 322.482 5.39702C317.463 1.36129 311.099 1.89957 305.303 3.06397C299.505 4.32328 293.496 6.10954 287.769 4.49751C284.163 3.42236 280.769 1.0029 277.022 0.555272C273.675 0.20579 270.353 1.52348 267.761 4.22837C265.177 6.97581 263.552 10.9021 263.236 15.157C260.346 15.6938 257.611 17.1505 255.287 19.3907C252.962 21.631 251.124 24.5817 249.944 27.9668C249.144 30.7094 248.621 33.5696 248.389 36.4788C248.106 41.4303 248.106 46.4011 248.389 51.3526C248.813 62.8195 249.238 74.3756 251.641 85.3935C252.278 88.2592 253.126 91.3062 255.247 92.6491C257.371 94.0826 260.125 93.0074 261.892 90.8571C263.503 88.5542 264.644 85.7864 265.216 82.7956C269.104 66.0435 267.548 48.0378 269.104 30.6597C269.226 28.5796 269.708 26.5592 270.518 24.7428V24.7428Z" fill="black"/>
<path d="M315.906 44.9871C316.508 56.1497 316.081 67.3632 314.634 78.4006C313.293 88.254 311.382 100.975 305.797 108.41C302.025 113.129 297.02 115.933 291.728 116.293C283.507 117.18 275.269 114.867 268.114 109.664C259.201 103.036 256.802 93.4499 255.388 80.9985C254.341 72.8241 253.822 64.5553 253.835 56.2741C253.977 44.9871 255.461 29.9377 261.541 21.0702C264.339 17.0386 267.788 13.8163 271.655 11.6215C275.522 9.42678 279.716 8.31093 283.953 8.3496C294.629 8.52809 303.748 15.6051 310.041 25.9148C313.453 31.3928 315.495 38.0362 315.909 44.9942" fill="#F2BF8C"/>
<path d="M310.536 25.5429C304.244 15.2404 295.123 7.80637 284.447 7.62646C280.054 7.69986 275.721 8.92353 271.719 11.2206C267.717 13.5177 264.134 16.8386 261.193 20.9746C255.112 29.8421 253.134 45.4298 252.992 56.7168C252.921 62.3603 254.053 67.5548 254.548 73.1983C254.972 73.4675 255.395 73.8258 255.82 74.095C256.173 74.2735 257.022 74.901 257.446 74.5426C257.8 74.2735 257.871 73.1983 257.871 72.8428C257.988 71.8347 258.035 70.8156 258.011 69.7972C258.023 67.7592 258.141 65.7244 258.365 63.706C259.248 55.1204 261.151 46.7535 264.011 38.8896C267.334 30.022 273.202 24.3785 280.767 29.3988C287.625 33.9671 293.351 41.9394 299.29 48.2105C304.452 53.6741 310.884 53.5848 309.754 48.2997C308.941 45.0803 308.326 41.7859 307.915 38.4462C310.946 41.2009 314.518 42.8438 318.237 43.1945C323.116 43.373 329.479 40.8643 332.236 35.4035C332.849 34.2659 333.2 32.9347 333.25 31.5588C333.3 30.1829 333.046 28.8165 332.519 27.6125" fill="black"/>
<path d="M252.066 59.3227C250.228 57.7985 247.895 56.6313 245.987 57.8892C245.099 58.5468 244.404 59.5526 244.007 60.7548C242.665 64.4279 243.224 68.8178 244.502 72.5801C246.736 79.2568 250.841 84.6494 256.026 87.7188C257.368 88.5248 258.995 89.0631 260.197 88.0771C260.887 87.415 261.363 86.4589 261.539 85.3857C262.164 82.276 262.041 79.0002 261.186 75.9799C259.419 68.907 257.086 63.442 252.066 59.3227V59.3227Z" fill="#F2BF8C"/>
<path d="M257.794 81.8018C257.011 70.247 252.562 66.2198 248.248 62.0056C250.724 66.2156 253.056 70.1564 254.329 75.1794C253.057 74.3734 250.441 73.2983 248.886 73.8352C252.279 76.0747 253.268 77.3283 257.794 81.8075V81.8018ZM293.637 58.1455C293.478 62.5628 294.007 66.9766 295.193 71.1352C296.253 74.4499 298.444 77.5847 301.413 77.9431C298.498 80.2399 295.256 81.7913 291.87 82.5101C290.245 75.0789 291.446 65.3146 293.637 58.1455Z" fill="#E28A42"/>
<path d="M296.466 65.6765C298.87 62.1833 303.182 57.7934 306.789 58.3317C310.395 58.87 313.72 61.3773 314.989 68.2744C314.989 68.2744 312.306 70.8724 306.152 70.2463C302.644 69.9304 299.283 68.3442 296.466 65.6765V65.6765ZM268.752 62.5403C271.156 59.0471 275.468 54.6572 279.074 55.1955C282.679 55.7338 286.005 58.2411 287.276 65.1382C287.276 65.1382 284.592 67.7362 278.438 67.1086C274.935 66.7678 271.578 65.1847 268.752 62.5403V62.5403Z" fill="white"/>
<path d="M310.324 68.7213C310.412 66.0161 310.942 63.3635 311.879 60.9303C310.436 59.4014 308.661 58.4629 306.789 58.2388C303.182 57.7006 298.87 62.1797 296.466 65.5836C299.264 68.2941 302.636 69.8848 306.152 70.152C307.517 70.3091 308.892 70.2791 310.252 70.0627C310.312 69.6198 310.336 69.1703 310.324 68.7213V68.7213ZM283.74 57.3436C282.392 56.1094 280.802 55.3662 279.144 55.1947C275.539 54.6564 271.227 59.1355 268.823 62.5395C271.621 65.2499 274.993 66.8406 278.508 67.1078C279.897 67.2629 281.295 67.233 282.679 67.0186C282.415 63.7324 282.779 60.4138 283.74 57.3436V57.3436Z" fill="black"/>
<path d="M274.761 87.7964C274.761 94.7842 282.75 100.875 293.779 96.9345" stroke="black" stroke-width="0.30276" stroke-linejoin="round"/>
<path d="M291.022 42.3999C290.528 45.7146 290.316 48.134 288.053 48.94C284.73 50.1044 278.863 46.9696 275.469 46.4313C272.284 45.9809 269.107 47.6807 266.135 49.3877C267.973 46.3421 269.245 42.305 272.215 41.4154C273.258 41.1186 274.328 40.9981 275.396 41.057C280.136 41.057 286.357 41.9522 291.022 42.3999V42.3999ZM316.899 54.3144C316.525 53.3493 315.995 52.4945 315.343 51.8057C314.071 50.4628 312.233 50.4628 310.678 50.4628C308.768 50.4628 306.86 50.4628 304.95 50.5521C304.479 50.6376 303.998 50.5851 303.544 50.3988C303.091 50.2124 302.678 49.8971 302.335 49.4769C302.152 49.0209 302.009 48.54 301.911 48.0434C301.698 46.7005 301.487 45.4469 301.274 44.1025C305.242 43.8023 309.224 44.0426 313.152 44.8193C313.908 44.8912 314.627 45.2679 315.202 45.8945C315.751 46.5855 316.142 47.4519 316.334 48.4018C316.583 49.509 316.725 50.6507 316.757 51.8015C316.884 52.629 316.931 53.4726 316.899 54.3144V54.3144Z" fill="black"/>
</svg>
